    <svg
      xmlns="http://www.w3.org/2000/svg"
      width="24"
      height="24"
      version="1.1"
      viewBox="0 0 114.908 115.104"
    >
      <g fillRule="evenodd" transform="translate(-2.4 -3.216)">
        <path
          fill="#b16f2c"
          d="M36.19 52.829l-.063.023c.502 0 .486-.044.783-.097.403-.072.484-.003.85.028l6.092-.002c.11-.437.053-1.52.045-2.032l.022-1.524c.183-.57.03-.192.273-.38.236-.137 7.148-.143 7.667.045.443.16.114.647.112 1.414-.013 5.478-.054 10.331-2.502 15.376-.433.89-.964 1.88-1.177 2.859.302-.2.057.241.258-.219.537.186-.343.3 1.544.326.583.008 1.21.04 1.795.059.076.484-.224 1.933-.286 2.464-.105.895-.249 1.77-.32 2.64-.138 1.666-.315 3.627-.623 5.188-.322 1.636-.402 3.433-.669 5.158-.165 1.071-.385 4.303-.613 5.402-.165.793-.223 1.693-.31 2.57-.082.828-.257 1.732-.359 2.553-.238 1.92-.291 3.672-.563 5.473-.254 1.677-.408 3.483-.654 5.199-.112.786-.125 1.971-.266 2.682-.086.437-.188.776-.23 1.208-.058.583.02.787-.145 1.186.374-.174.324-.132.823-.137l15.382.016c-.03-.395-.496-1.485-.66-1.908-.423-1.089-.335-1.56-.477-2.034l-.126-.165c-.056-.117-.05-.036-.11-.28a43.77 43.77 0 01-.07-.544l-.023-.784c.043-.255.055-.234.092-.323.856-.326 6.732-.11 8.177-.11-.084-.083-.142.002-.273-.107-.356-.3.183.042-.144-.277-.211-.206-4.147-.794-3.707-7.157 1.448-.015 6.56-.272 7.753-.172.492.041.563.178 1.214.208l-.09-.317c-.285-.388-.93-.747-1.338-1.016l-2.82-2.03c-.408-.275-.945-.735-1.518-.91-.96-.25-2.3.194-3.277.046l-.008-.744c.338-.247.151-.098.49-.215-.375-.417-.338-.552.136-1.045-.451-.291-1.283-1.12-1.754-1.335-.397-.182-.443-.05-.677-.456-.258-.552-.13-3.17-.095-4l-1.783-.116c-.81-.246.506-4.436.726-4.965 1.652-3.97 5.49-7.805 10.05-8.557 3.47-.572 8.535-.284 12.221-.282 4.134.002 8.349.114 12.47.03l.213-.631c.008-.023.016-.064.033-.092-.152-.942.308-6.368.386-7.793.145-2.662.227-5.317.365-7.943l.63-11.81c.05-1.356.225-2.556.246-3.863.008-.8.275-3.277.002-3.471-.284-.204-30.392-.08-31.56-.08l-23.835.003c-2.416 0-5.518-.188-7.843-.008l.564 9.283c.124 1.44.243 2.947.287 4.536.023.809.043 1.62.068 2.428.024.806.293 1.758-.801 1.528z"
        ></path>
        <path
          fill="#cc4330"
          d="M48.292 68.539l-.05-.015c-.422.436-4.35.142-5.21.153-4.023.052-2.569-.32-4.166 1.184-1.523 1.433-4.068 4.24-5.33 5.336-.206.27-.29.261-.548.474-.818.677-.169.997-2.204.956-1.22-.025-7.952.115-8.513-.063-.59-.186-2.07-1.805-2.193-2.023-.39-.175-4.455-4.457-4.958-4.933-.475-.451-.71-.87-1.656-.896l-7.371-.039-3.689.056c-.042.787.232 2.387.347 3.24.142 1.063.202 2.047.333 3.102.38 3.064.866 6.232 1.137 9.335l2.521 21.534c.183 1.033.165 2.169.333 3.223.142.884.293 1.907.417 2.973l.617 4.504c.192 2.117-.4 1.622 2.48 1.625l25.822.015c1.316-.001 8.717-.105 9.362.027.539-.547.223-.93.407-1.839.123-.605.195-1.302.277-1.891l.394-4.15c.166-.398.087-.602.144-1.185.043-.432.145-.771.231-1.208.141-.71.154-1.896.266-2.682.246-1.716.4-3.522.654-5.199.272-1.8.325-3.553.563-5.473.102-.821.277-1.725.359-2.552.087-.878.145-1.778.31-2.571.228-1.099.448-4.33.613-5.402.267-1.725.347-3.522.67-5.157.307-1.562.484-3.523.621-5.188.072-.87.216-1.746.321-2.641.063-.531.362-1.98.286-2.464-.586-.02-1.212-.05-1.795-.059-1.887-.026-1.007-.14-1.544-.326-.2.46.044.019-.258.219z"
        ></path>
        <path
          fill="#ccd0d3"
          d="M38.133 25.825l.005 1.25 14.826-.123c4.975-.004 9.92-.036 14.897-.05l22.511.051c.953.002 6.792.294 7.125.03.169-1.295-.426-4.434-.73-5.684-.445-1.839-1.03-3.218-1.78-4.838-1.557-3.364-4.908-7.173-7.68-8.885-3.472-2.146-2.43-1.616-6.667-3.257-3.787-1.468-13.838-1.054-18.738-1.035-2.26.01-3.81.253-5.887.747-3.806.905-5.994 2.263-8.864 4.38-2.412 1.78-4.565 4.364-6.093 7.16-.728 1.33-2.014 4.254-2.356 5.89-.24 1.15-.61 3.33-.57 4.364z"
        ></path>
        <path
          fill="#f4c89e"
          d="M61.919 106.365c.142.473.054.945.477 2.034.164.423.63 1.513.66 1.909l-15.382-.017c.17.13-.041.034.237.103.727.182 14.334-.055 14.864.072.415.099.858.721 1.017 1.09.127.293.208.409.368.612 1.081 1.371 1.464 2.075 2.953 3.12l1.263.84c.481.225.72.544 1.175.797.386.215.948.429 1.361.624 2.504 1.185 14.01.65 17.584.651 5.356.001 10.727.049 16.08-.026 4.008-.147 7.075-2.388 8.941-4.33 1.156-1.202 1.862-2.342 2.613-4.018.62-1.385 1.03-3.128 1.17-4.693.015-.18.022-.583-.113-.688-1.144-.363-6.33.124-7.988.066.038-.304.054-.34.149-.573-.584.103-.551.249-1.281.343-.869.113-3.474.07-4.453.075-1.987.008-3.972-.001-5.959-.005-3.972-.008-7.945.016-11.918.002-5.727-.02-12.243.09-17.876-.02-1.067-.02-5.21-.095-5.92.082a.801.801 0 00-.032.097c-.19.73-.03 1.056.01 1.853z"
        ></path>
        <path
          fill="#f4c89e"
          d="M61.968 84.516c.86.157 1.769-.03 2.58-.052.97-.026 1.855.056 2.757.067l17.219.02c1.497.002 21.73-.07 22.656.07l1.73.233-.046-.274c.789-.054 1.013-.145 1.953-.064.281.024 6.229.17 6.43-.063.128-.371-.316-3.086-.503-3.672-1.388-4.367-4.608-7.957-8.866-9.333-1.017-.328-1.284-.43-2.513-.56-1.362-.143-2.742-.125-4.179-.137-.698-.006-1.4.007-2.096-.017-1.658-.058-1.249.06-1.358-.268-.004-.012-.045-.404-.051-.447-.017.028-.025.069-.033.092l-.213.63c-4.121.085-8.336-.027-12.47-.03-3.686-.001-8.752-.289-12.221.284-4.56.752-8.398 4.586-10.05 8.556-.22.53-1.536 4.72-.726 4.965z"
        ></path>
        <path
          fill="#e7e7e9"
          d="M40.585 35.02c2.53.016.914.041 3.33.042l23.835-.003c1.168 0 31.276-.124 31.56.08.29-.099-.19-.339.343-.317.753.056 3.106.203 3.714.015.282-.684-.07-5.356.102-6.816l.049-.375-.124-.437c-1.869-.217-4.11.157-5.897-.226-.333.264-6.172-.028-7.125-.03l-22.511-.052c-4.977.015-9.922.048-14.897.05l-14.826.124-.005-1.25c-.228.302-.152.91-.205 1.298l-5.575.036c-.028.007-.06.021-.084.029l-.105 7.723 3.702.137c3.358-.069 3.589-.042 4.719-.027z"
        ></path>
        <path
          fill="#c78841"
          d="M113.055 92.508c.283.134.198 3.74.05 4.201-.268.002-.441-.07-.723-.115-.33-.053-.555-.028-.93-.031H105.6c-4.447.01-11.478.122-15.658-.046-2.427-.097-5.114-.297-7.515.045-.071-.128-.224.136.021-.257l-2.078.936c-3.379 1.665-2.41 1.084-5.038-.35-.322-.176-.415-.347-.72-.554l.09.317c-.651-.03-.722-.167-1.214-.208-1.194-.1-6.305.157-7.753.172-.44 6.363 3.496 6.95 3.707 7.157.327.319-.212-.023.144.277.131.11.19.024.273.107-1.445 0-7.32-.216-8.177.11-.037.089-.05.068-.092.323l.023.784c.002.017.066.527.07.544.06.244.054.163.11.28l.126.165c-.04-.797-.2-1.123-.01-1.852a.801.801 0 01.032-.097c.71-.177 4.853-.103 5.92-.082 5.633.11 12.149-.002 17.877.019 3.972.014 7.945-.01 11.917-.002 1.987.004 3.972.013 5.96.005.978-.004 3.583.038 4.452-.074.73-.095.697-.24 1.28-.343.355 0 1.291-.499 1.656-.78.446-.345.817-.776 1.198-1.23 1.596-1.902 1.063-5.848 1.143-8.585.025-.87.168-4.136-.385-4.547-.11.625.072.299.143 1.017.098.983-.167 2.276-.047 2.695z"
        ></path>
        <path
          fill="#f7bb0b"
          d="M61.968 84.516l1.783.116c-.035.83-.164 3.448.095 4 .234.406.28.274.677.456.471.216 1.303 1.044 1.754 1.335.544.152.854.58 1.432.972.245.166.392.306.61.498.232.204.44.301.617.488.572.175 1.11.635 1.518.91l2.82 2.03c.407.269 1.053.628 1.338 1.016.305.207.398.378.72.554 2.627 1.434 1.66 2.015 5.038.35l2.078-.936c1.6-.68 2.993-1.395 4.51-2.08 1.288-.583 3.346-1.658 4.74-1.958.144-.12.021-.027.245-.123l2.405-1.233c.898-.407 1.696-.845 2.612-1.244 3.044-1.324 2.7-.355 2.56-5.12l7.66.073c-.925-.14-21.159-.068-22.656-.07l-17.22-.019c-.901-.01-1.785-.093-2.756-.067-.811.021-1.72.209-2.58.052z"
        ></path>
        <path
          fill="#f7bb0b"
          d="M12.14 50.97l.349.814c.054.206.132.306.07.731-.087.58-.486.443-1.639.44-.861 0-4.383-.177-4.524.11.478-.163 3.623.073 4.747-.04.817-.082.751.013 1.496.083.035 1.259.138 2.394.25 3.634.128 1.432.117 6.262-.1 7.658-.139.902-.223 2.962-.429 3.584-.437.199-.219-.062-.59.088-.419.169.093.172-.573.3l1.145.078c.7.061 1.817.185 2.372-.324l.144-.2c.321-.406.263.12.682-.756.333-.694.473-.194 1.058-1.254.088-.16.166-.407.25-.528.198-.283.145-.11.398-.371.052-.055.264-.362.319-.447l2.049-2.588c.29-.361.17-.525.66-1.216.396-.557.388-1.398.75-2.026.086-.152.19-.249.286-.468.326-.745.707-4.281.928-4.48.303-.273 3.54-.162 3.862-.178.21-.011.731-.082.927-.063.801.078.062.267.692.41.494.11.37-.086.634-.456.546-.765.466-.597 1.7-.43.08 1.005-.525 4.416-.527 4.84.105-.13.04-.016.13-.221.247-.56.628-4.18.412-4.904l-1.818-.112c-.158-.52-.01-5.784-.029-7.115l.025-2.427c.397-.214 7.252-.152 7.532-.06-.14-.068-.077-.065-.169-.193l-7.525.095c-.167.818-.033 3.85-.034 4.902l.024 4.418c-.069.5.021.21-.182.424-.291.257-4.153.118-4.837.119-1.066.001-1.164-.244-1.411-1.095l-3.5-8.766c-.794-.048-3.151.654-3.95.877-1.22.34-2.634.57-3.817.942-.126.87.191.948.434 1.639z"
        ></path>
        <path
          fill="#fac624"
          d="M6.093 68.673l7.37.04c.948.026 1.182.444 1.657.895.503.476 4.568 4.758 4.958 4.933.377.212.008.165.37.086.062-.16.031-.926-.488-1.253.012.006.034-.004.038-.004l.461-.155c1.69-.731.642.346 1.916-1.295.266-.343.396-.474.65-.788.428-.528.882-.914 1.339-1.536.737-1.001.395-1.127 1.218-1.527l-.115-.574c.365-.017.45-.008.59-.27.084-.157.033-.136.116-.325l.036-.078.04-.074.234-.434c.418-.754.223-.034.446-.751.278-.898.199-.495.452-.988l.493-1.18c.186-.443.31-.846.473-1.285.721-1.938.225.243.803-2.731.048-.25.144-.41.202-.638l.165-.58c.008-.06.029-.072.05-.104l-.041-.143c.002-.424.608-3.834.526-4.839-1.233-.167-1.153-.335-1.699.43-.264.37-.14.567-.634.455-.63-.142.11-.33-.692-.409-.196-.019-.718.052-.927.062-.321.017-3.559-.094-3.862.178-.221.2-.602 3.736-.928 4.48-.096.22-.2.317-.287.469-.36.628-.353 1.47-.749 2.026-.49.69-.37.855-.66 1.216l-2.05 2.588a6.104 6.104 0 01-.318.447c-.252.26-.2.088-.398.371-.084.121-.162.368-.25.527-.585 1.06-.725.56-1.058 1.255-.42.875-.36.35-.682.756l-.144.2c-.554.509-1.672.385-2.372.324.086.335.123.118-.097.286-.957 0-1.913.002-2.87-.001-.478-.002-.955.002-1.434.002l-1.254-.086c-.011-.028-.049-.013-.07-.026-.177-.135-.535-1.466-.583-1.683-.287-1.296-.52-4.77-.523-6.036-.001-.63.33-6.285.5-6.715l.385-1.125c.14-.288 3.663-.112 4.524-.11 1.153.002 1.552.14 1.638-.441.063-.425-.014-.525-.07-.731l-.347-.814c.03.89.493 1.342.104 1.706-.55.314-4.96.042-6.07.138-.509.93-.531 2.43-.659 3.782-.304 3.211-.539 4.862.03 8.338.108.666.12 1.314.233 1.983.129.774.555 1.033.314 1.756z"
        ></path>
        <path
          fill="#f7bb0b"
          d="M48.241 68.525l.051.014c.213-.978.744-1.968 1.177-2.86 2.448-5.044 2.49-9.897 2.502-15.375.002-.767.331-1.254-.112-1.414-.52-.188-7.431-.182-7.667-.045-.093.824-.042 3.55-.27 4.134-.299.767.071.136.107 1.186.033.959-.066 2.045-.156 2.951-.04.413-.074.987-.132 1.467-.093.771-1.22 3.64-1.57 4.555-.47 1.23-1.104 3.28-1.74 4.448-.083.154-.207.366-.249.532-.085.343.068.206-.03.398 2.322.14 5.974.063 8.09.009z"
        ></path>
        <path
          fill="#cdd1d4"
          d="M46.85 110.428l-.393 4.149c-.082.589-.154 1.286-.277 1.891-.184.908.132 1.292-.407 1.839 1.387-.196 12.392-.066 14.805-.07 4.483-.007 43.193.19 43.998-.063-5.353.075-10.724.028-16.08.026-3.573 0-15.08.534-17.584-.65-.413-.196-.975-.41-1.361-.625-.454-.253-.694-.572-1.175-.797l-1.263-.84c-1.49-1.045-1.872-1.749-2.953-3.12a2.267 2.267 0 01-.368-.613c-.159-.368-.602-.99-1.017-1.089-.53-.127-14.137.11-14.864-.072-.279-.07-.067.026-.237-.103-.499.005-.45-.037-.823.137z"
        ></path>
        <path
          fill="#f7bb0b"
          d="M20.078 74.541c.124.218 1.603 1.837 2.193 2.023.56.178 7.293.038 8.513.063 2.035.041 1.386-.279 2.204-.956.258-.213.342-.204.547-.474-.12.364-.57.507-.999.807-.009-.575.558-3.232.709-3.911l2.303-9.44c.203-.545.436-1.112.349-1.862l-2.964-.963c-.842-.266-.59-.081-.846-.457-.114-.008-2.348-.683-2.52-.787v-.527c-.021.032-.042.044-.05.104l-.165.58c-.058.228-.154.389-.202.638-.578 2.974-.082.793-.803 2.731-.163.439-.287.842-.473 1.285l-.493 1.18c-.254.493-.174.09-.452.987-.222.718-.028-.002-.446.752l-.234.434-.04.074a2.402 2.402 0 00-.036.078c-.083.188-.032.168-.116.325-.14.262-.225.253-.59.27l.115.574c-.823.4-.481.526-1.218 1.528-.457.62-.91 1.007-1.339 1.535-.254.314-.384.445-.65.788-1.274 1.64-.226.564-1.916 1.295l-.46.155c-.005 0-.027.01-.04.004.52.327.551 1.094.49 1.253-.363.079.006.126-.371-.086z"
        ></path>
        <path
          fill="#eea60a"
          d="M36.127 52.852c-.012.527-.099.464-.108.941l.036 6.752c-1.242-.047-2.768-.916-3.968-1.174.256.376.004.19.846.457l2.964.963c.087.75-.146 1.317-.349 1.861l-2.303 9.44c-.15.68-.718 3.337-.709 3.912.428-.3.88-.443 1-.807 1.262-1.097 3.807-3.903 5.33-5.336 1.597-1.503.143-1.132 4.166-1.184.86-.011 4.788.283 5.21-.153-2.116.055-5.768.132-8.09-.008.098-.192-.055-.055.03-.398.042-.166.166-.378.25-.532.635-1.167 1.269-3.218 1.739-4.448.35-.915 1.477-3.784 1.57-4.555.058-.48.091-1.054.132-1.467.09-.906.19-1.992.156-2.951-.036-1.05-.406-.419-.106-1.187.227-.583.176-3.309.269-4.134-.243.19-.09-.19-.273.38l-.022 1.525c.008.512.065 1.595-.045 2.032l-6.093.002c-.365-.031-.446-.1-.849-.028-.297.053-.28.098-.783.097z"
        ></path>
        <path
          fill="#de9406"
          d="M29.526 57.914l.04.143v.527c.173.104 2.407.779 2.521.787 1.2.258 2.726 1.127 3.968 1.174l-.036-6.752c.01-.477.096-.414.108-.941l.063-.023c-.427-.142-.29-.575-.29-1.085l-.014-6.402c.007-1.273.274-2.189-.108-2.266-.28-.092-7.135-.154-7.532.06l-.025 2.427c.018 1.33-.129 6.595.029 7.115l1.818.111c.217.724-.165 4.346-.411 4.905-.09.205-.026.091-.131.22z"
        ></path>
        <path
          fill="#c6863f"
          d="M91.698 92.267c2.653.332 14.921.243 18.537.219.825-.006 2.073.11 2.82.022-.12-.418.145-1.71.047-2.694-.071-.718-.253-.392-.143-1.017.041-.876-.965-2.03-1.486-2.542-.312-.306-.67-.654-1.216-.865-.48-.185-1.01-.533-1.347-.536l-1.73-.234-7.66-.073c.14 4.765.484 3.796-2.56 5.12-.916.4-1.714.837-2.612 1.244l-2.405 1.233c-.224.096-.1.003-.245.123z"
        ></path>
        <path
          fill="#eea60a"
          d="M12.342 68.45l-1.145-.078c.666-.128.154-.131.573-.3.371-.15.153.11.59-.088.206-.622.29-2.682.43-3.584.216-1.396.227-6.226.099-7.658-.112-1.24-.214-2.375-.25-3.634-.745-.07-.679-.165-1.496-.083-1.124.113-4.268-.123-4.747.04l-.384 1.126c-.17.43-.502 6.084-.501 6.715.002 1.265.236 4.74.523 6.035.048.218.406 1.549.583 1.684.021.013.059-.002.07.026l1.254.086c.479 0 .956-.004 1.435-.002.956.003 1.912 0 2.869 0 .22-.167.183.05.097-.285z"
        ></path>
        <path
          fill="#a46523"
          d="M82.448 96.305c-.245.393-.092.13-.021.257 2.4-.342 5.088-.142 7.514-.045 4.18.168 11.212.057 15.66.047l5.851-.001c.375.004.6-.021.93.031.282.046.455.117.723.115.148-.461.233-4.067-.05-4.2-.747.088-1.995-.03-2.82-.023-3.616.024-15.884.113-18.537-.22-1.395.3-3.452 1.376-4.74 1.958-1.517.686-2.91 1.401-4.51 2.081z"
        ></path>
        <path
          fill="#c8883b"
          d="M68.936 92.381c-.176-.187-.385-.284-.617-.488-.218-.192-.365-.332-.61-.498-.578-.392-.888-.82-1.432-.972-.474.493-.511.628-.136 1.045-.339.117-.152-.032-.49.215l.008.744c.976.148 2.317-.296 3.277-.046z"
        ></path>
      </g>
    </svg>