  <svg
      xmlns="http://www.w3.org/2000/svg"
      width="24"
      height="24"
      version="1.1"
      viewBox="0 0 107.389 107.409"
    >
      <g fillRule="evenodd" transform="translate(-6.901 -5.925)">
        <path
          fill="#cc452e"
          d="M100.348 20.998c.87-.225 1.626-.301 2.28.405l.12.142c.152.199.125.141.238.403.099.23.174.596.133.976-.252 2.333-4.631 1.656-7.296 2.871-3.018 1.377-2.573 3.897-3.875 6.301a7.797 7.797 0 01-1.07 1.538c-.363.403-.867.902-1.273 1.204a9.615 9.615 0 01-3.448 1.619c-5.545 1.397-3.132 4.977-6.696 8.612-2.79 2.847-5.094 2.141-6.724 3.46-2.712 2.193-1.323 3.631-3.538 6.642-3.454 4.694-6.887 2.229-9.016 6.128-.44.807-.356 1.07-.645 1.987-.151.48-.454 1.318-.69 1.778-2.718 5.296-6.611 3.758-8.992 6.296-1.277 1.36-.953 1.833-1.587 3.498-2.307 6.057-6.24 5.336-8.529 6.758-2.562 1.592-1.87 3.866-3.634 6.56-3.066 4.684-6.94 2.71-9.084 6.184-1.378 2.233-.84 6.498-2.501 7.557-.723.46-1.752.247-2.281-.395-.807-.977-.362-1.997-.02-3.604.74-3.473.943-5.94 4.358-8.304 2.543-1.76 4.645-.74 6.54-3.66.208-.321.297-.395.448-.858.138-.424.19-.604.287-1.02.463-1.97 1.324-3.41 2.797-4.765 2.657-2.445 4.736-1.515 6.75-3.44 2.091-1.998 1.064-4.02 3.446-6.736 2.747-3.134 4.911-2.541 6.605-3.58 2.984-1.832 2.041-3.682 3.686-6.359 3.149-5.122 7.066-3.142 9.08-6.21 1.41-2.147.895-6.434 6.59-8.681 1.557-.615 2.311-.352 3.631-1.482 2.398-2.052 1.093-3.488 3.474-6.705 2.193-2.96 5.303-3.046 6.53-3.659 2.196-1.097 2.591-2.723 3.083-4.638.35-1.37 1.45-2.898 2.498-3.887.14-.132.214-.204.344-.314l.07-.06c2.502-2.03 5.586-1.96 7.911-2.562zm-11.122-8.633c-.302.656-6.983 7.325-7.572 7.522-.07.44-3.176 3.38-3.725 3.93l-9.462 9.474c-.645.65-1.277 1.22-1.896 1.893-1.708 1.857-5.778 5.76-7.645 7.633-2.532 2.539-4.985 5.013-7.56 7.59-2.603 2.602-5.087 5.032-7.655 7.624l-11.415 11.44c-1.252 1.22-2.616 2.52-3.797 3.777l-5.686 5.677c-.42.406-1.506 1.698-1.964 1.768-.203.6-1.346 1.582-1.813 2.03l-3.652 3.659c-.426.429-1.366 1.524-1.93 1.757l-1.304 1.278c-.733.774-2.33 2.387-2.792 3.085l-.5.807c-.82 1.291-1.027 2.09-1.492 3.47-.175.518-.108.16-.191.854-.216 1.804-.317 1.114-.256 3.674.016.658.284 1.65.466 2.276l.246.929c.102.283.124.423.23.684l.272.512c.015.025.035.056.049.082l.046.084c.5.95.656 1.43 1.496 2.422 1.499 1.766 2.44 2.614 4.555 3.672 1.263.631.942.52 2.275.86l2.008.473c.523.067 1.385.012 1.946.015.305.002.738.022 1.03-.015 1.378-.175 3.292-.838 4.282-1.333l1.846-1.028.075-.054 4.104-3.852.063-.06c.012-.01.043-.037.063-.058.32-.693 4.718-4.865 5.609-5.78.47-.483 1.346-1.534 1.97-1.745.065-.461 1.42-1.597 1.825-2.036l28.458-28.482c2.594-2.596 5.052-5.057 7.655-7.625l15.213-15.215c.472-.501 7.114-7.364 7.652-7.446.204-.6 1.33-1.57 1.81-2.03.854-.822 4.964-5.162 5.582-5.417l1.923-1.964c.193-.192.275-.251.477-.438l.068-.062a5.06 5.06 0 00.066-.064l1.563-1.834.05-.08c.015-.024.034-.057.05-.081l2.014-4.515.323-2.158c-.006-2.798.106-1.417-.277-3.65l-.188-.596-.03-.1c-.275-.943-.249-1.196-.718-2.025l-1.332-2.325c-.697-.936-1.62-1.681-2.259-2.312-.544-.54-.516-.45-1.128-.83-1.037-.647-2.111-1.23-3.283-1.55l-.805-.239c-1.083-.337-3.496-.478-4.597-.338-.34.043-.548.161-.835.21l-1.186.251c-1.554.504-1.58.489-2.797 1.12l-.332.19-1.054.645c-.323.234.16-.131-.15.111-1.121.877-3.08 2.84-4.082 3.859z"
        ></path>
        <path
          fill="#f4c89d"
          d="M100.353 38.587c3.257 3.157 2.886 9.655 2.749 13.881-.022.685-.674 2.581-.944 3.146-1.255 2.618-3.89 5.045-6.837 5.593-1.25.233-2.674.147-3.801.375-3.257.658-5.733 2.14-7.386 5.011-2.558 4.442.134 7.565-4.256 12.197-3.317 3.5-7.586 2.82-9.302 3.238-2.925.711-5.685 2.477-7.025 5.37-1.756 3.792-.807 4.54-1.364 6.87-1.07 4.476-4.358 7.143-8.81 7.812-1.887.284-6.215.114-8.066-.107-1.88-.224-4.665-1.434-5.761-2.582-.624.211-1.5 1.262-1.97 1.745-.891.915-5.288 5.087-5.61 5.78l.349.202.076.056 2.09 1.565.077.054 4.67 2.252c1.055.374 1.742.388 2.614.651l1.248.188c.932.08.491.258 2.357.256.81-.001 1.937.133 2.68-.062 1.037-.272 2.32-.317 3.3-.619.187-.058.235-.09.487-.166l.507-.145c.032-.01.065-.024.097-.034.04-.014.151-.057.191-.07l.78-.264c.44-.163.538-.194.934-.373l1.327-.632c.194-.113.252-.151.502-.282.035-.018.139-.068.174-.087l1.697-1.046.077-.053.654-.521.078-.053 7.084-6.628c.246-.248.112-.136.303-.35.156-.172.15-.16.332-.321l.07-.06 3.48-3.443c.108-.095.109-.09.211-.18a20.43 20.43 0 001.412-1.33l4.073-4.025c.327-.284 1.078-.952 1.34-1.27l2.568-2.527.066-.065 2.662-2.561c.016-.016.158-.15.2-.192 1.208-1.208 2.55-2.362 3.672-3.641l11.489-11.235a4.04 4.04 0 01.066-.065c.11-.105.21-.177.346-.307l1.738-1.657c.964-1.012 2.123-1.917 3.056-2.951.262-.291.33-.412.63-.676l2.754-2.731c.255-.293.379-.4.64-.667l1.742-2.305c.108-.166.146-.237.248-.405l.539-.898.044-.086.132-.261.044-.087c.014-.026.03-.06.045-.085l.048-.083.254-.398.045-.086.08-.182c.1-.231.07-.2.193-.459l.132-.26a9.98 9.98 0 00.042-.088l1.53-4.608c.378-1.648.587-3.894.595-5.55.007-1.436-.604-4.565-.681-4.934l-.156-.497c-.052-.172-.034-.121-.079-.313a17.544 17.544 0 00-1.812-4.587l-.049-.082-1.895-3.065c-.38-.494.02-.176-.424-.392-.618.255-4.728 4.595-5.583 5.417-.48.46-1.605 1.43-1.809 2.03z"
        ></path>
        <path
          fill="#f4c89d"
          d="M13.455 88.139c.563-.233 1.503-1.328 1.929-1.757l3.652-3.659c.466-.448 1.61-1.43 1.813-2.03-1.243-1.189-2.218-3.76-2.597-5.734-.382-1.988-.22-5.754-.159-8.013.02-.712.615-2.557.863-3.1 1.27-2.78 3.7-5.008 6.822-5.735 2.651-.618 3.447.238 6.868-1.333 2.852-1.31 4.824-3.98 5.517-6.909.498-2.105-.38-5.665 3.158-9.379 3.973-4.17 7.955-2.054 12.158-4.292 1.55-.826 3.319-2.547 4.086-4.14 2.124-4.407.162-8.485 4.403-12.187 1.758-1.534 3.136-2.248 5.742-2.654 2.168-.338 5.871-.108 8.04.078 1.81.157 4.733 1.375 5.903 2.592.59-.197 7.27-6.866 7.573-7.522L84.72 9.402l-.087-.044-.084-.046c-.035-.02-.13-.078-.165-.097L81.48 8.071c-1.115-.333-2.208-.571-3.376-.674-.94-.083-.484-.259-2.355-.256-.808 0-1.94-.113-2.688.054-1.54.344-2.143.296-3.779.792l-.409.114-.099.031-3.163 1.278-.164.096-4.338 2.976-5.03 4.895c-.019.02-.044.049-.063.068l-9.664 9.403c-.163.143-.17.131-.34.312l-2.338 2.365c-.035.038-.3.268-.347.305l-7.161 6.944c-1.617 1.412-3.293 3.416-5.174 5.012-.278.236-.348.432-.62.685-.267.247-.422.356-.691.616l-3.959 3.877-.063.067-.384.4c-.293.273.162-.144-.14.122l-4.57 4.44-.071.06-3.381 3.279c-.01.01-.147.15-.192.2l-1.9 1.887-.128.134-.82.876c-.313.32-.308.387-.572.735-.7.92-1.424 1.835-1.957 2.875l-.045.086-2.157 5.025c-.61 2.087-.72 4.252-.833 4.652-.387 1.363-.002 4.584.246 6.12.237 1.46.72 2.79 1.177 4.177l.304.74.042.09 2.004 3.611c.024.03.093.115.115.146l.653 1.043c.358.512-.06.188.405.41z"
        ></path>
        <path
          fill="#a2ba18"
          d="M20.849 80.692c.458-.07 1.544-1.36 1.964-1.767l5.686-5.677c1.18-1.257 2.545-2.557 3.797-3.778l11.415-11.439c2.568-2.592 5.052-5.022 7.655-7.625 2.575-2.576 5.028-5.05 7.56-7.589 1.867-1.872 5.937-5.776 7.645-7.633.619-.673 1.251-1.243 1.896-1.893l9.462-9.474c.549-.55 3.655-3.49 3.725-3.93-1.171-1.217-4.094-2.435-5.904-2.591-2.169-.187-5.872-.417-8.04-.079-2.606.406-3.984 1.12-5.742 2.654-4.241 3.702-2.28 7.78-4.403 12.188-.767 1.592-2.536 3.313-4.086 4.139-4.203 2.238-8.185.121-12.158 4.292-3.537 3.714-2.66 7.274-3.158 9.38-.693 2.928-2.665 5.599-5.517 6.908-3.42 1.571-4.217.715-6.868 1.333-3.122.727-5.552 2.955-6.822 5.735-.247.543-.844 2.388-.863 3.1-.06 2.259-.223 6.025.159 8.013.379 1.974 1.354 4.545 2.597 5.734z"
        ></path>
        <path
          fill="#a2ba18"
          d="M39.55 99.391c1.096 1.148 3.881 2.358 5.761 2.582 1.85.22 6.18.391 8.067.107 4.451-.669 7.738-3.336 8.809-7.811.557-2.332-.392-3.079 1.364-6.87 1.34-2.894 4.1-4.66 7.025-5.371 1.716-.418 5.985.262 9.302-3.238 4.39-4.632 1.698-7.755 4.256-12.197 1.653-2.87 4.13-4.353 7.386-5.011 1.127-.228 2.551-.142 3.801-.375 2.948-.548 5.582-2.975 6.837-5.593.27-.564.921-2.46.944-3.146.136-4.226.508-10.724-2.749-13.88-.538.08-7.18 6.944-7.652 7.445L77.488 61.248a1443.017 1443.017 0 00-7.655 7.625L41.375 97.355c-.406.438-1.76 1.574-1.825 2.036z"
        ></path>
        <path
          fill="#f5b801"
          d="M100.348 20.998c-2.325.602-5.41.532-7.911 2.563l-.07.06c-.13.109-.204.18-.344.313-1.047.989-2.147 2.518-2.498 3.887-.492 1.915-.887 3.541-3.083 4.638-1.227.613-4.337.698-6.53 3.66-2.381 3.216-1.076 4.652-3.474 6.704-1.32 1.13-2.074.867-3.631 1.482-5.695 2.247-5.18 6.534-6.59 8.68-2.014 3.07-5.931 1.089-9.08 6.211-1.645 2.677-.702 4.527-3.686 6.358-1.694 1.04-3.858.447-6.605 3.58-2.382 2.717-1.355 4.74-3.446 6.738-2.014 1.924-4.093.994-6.75 3.439-1.473 1.354-2.334 2.796-2.797 4.764-.098.417-.15.597-.287 1.021-.15.463-.24.537-.448.858-1.895 2.92-3.997 1.9-6.54 3.66-3.415 2.365-3.618 4.831-4.358 8.304-.342 1.607-.787 2.627.02 3.604.53.642 1.558.856 2.281.395 1.66-1.06 1.123-5.324 2.5-7.557 2.145-3.475 6.019-1.5 9.086-6.185 1.763-2.693 1.072-4.967 3.633-6.56 2.289-1.421 6.222-.7 8.53-6.757.633-1.665.31-2.138 1.586-3.499 2.38-2.537 6.274-.999 8.991-6.295.237-.46.54-1.298.69-1.778.29-.917.206-1.18.646-1.987 2.13-3.9 5.562-1.434 9.016-6.128 2.215-3.01.826-4.45 3.539-6.643 1.63-1.318 3.933-.612 6.723-3.459 3.564-3.635 1.151-7.215 6.696-8.612a9.615 9.615 0 003.449-1.62c.405-.302.909-.8 1.272-1.203.404-.448.75-.947 1.07-1.538 1.302-2.404.857-4.924 3.875-6.3 2.665-1.216 7.044-.54 7.296-2.872a2.041 2.041 0 00-.133-.976c-.113-.262-.086-.204-.238-.403l-.12-.142c-.654-.706-1.41-.63-2.28-.405z"
        ></path>
      </g>
    </svg>