  <svg
      xmlns="http://www.w3.org/2000/svg"
      width="24"
      height="24"
      version="1.1"
      viewBox="0 0 116.079 116.216"
    >
      <g fillRule="evenodd" transform="translate(-2.64 -1.68)">
        <path
          fill="#ddad7d"
          d="M11.342 29.184c-.261.186-1.592 2.673-1.58 2.911l-.12.484c.345.255.466.175.864.397.251.14.44.325.649.46.45.293 1.096.551 1.51.776l1.396.947c.312.169.42.144.78.374.294.188.434.299.703.438l4.492 2.524c.651.344.846.545 1.371.86l2.95 1.709c.317.239 1.252.721 1.524.864l4.394 2.501c.867.483 1.627 1.065 2.855 1.684.559.282.97.597 1.477.88l4.407 2.491c1.129.58 1.894 1.143 2.908 1.742l2.956 1.666c.54.184 2.258 1.32 2.963 1.68.945.483 2.016 1.186 2.876 1.758.276.183.534.286.818.427.358.18.348.256.662.463l4.254 2.286c.015.671-.787.848-1.214 1.114-2.354 1.467-5.05 2.852-7.382 4.288-2.434 1.498-3.697 2.12-5.967 3.42l-5.89 3.398c-.513.299-.939.61-1.455.908-.523.303-1.012.515-1.474.788l-16.36 9.44c-2.133 1.132-3.843 2.222-5.87 3.419-1.02.602-.568.207-1.212 1.069.168.573 1.374 2.491 1.77 3.145.229.057.15-.032.353.146-.165-.553.661-.75 1.135-.982l13.275-7.642c1.207-.674 2.932-1.797 4.031-2.334.115-.056.227-.102.372-.189l4.195-2.45c.057-.035.118-.073.213-.127l4.389-2.524c1.851-1.16 4.045-2.246 5.91-3.364l1.478-.903c1.981-1.22 4.094-2.244 5.907-3.379l4.395-2.6c.535-.317.927-.746 1.6-.807l.026 13.589c-.02 4.523 0 9.074-.086 13.576-.085 4.474.033 9.087.064 13.577l.02 10.182c-.013 1.122-.224 2.377-.125 3.395h4.29l-.013.064c-.292-1.199-.058-11.457-.042-13.528.084-11.196-.037-22.91-.097-34.167-.01-1.79-.271-5.167-.02-6.754.264-.01 1.546.616 1.553.62.561.358-.096.158 1.413.956.96.508 1.87 1.22 2.921 1.71.99.463 3.248 1.85 4.44 2.56.92.548 1.97 1.02 2.968 1.684l8.967 5.179c1.407.749 2.388 1.58 4.445 2.577 1.454.705 2.614 1.67 3.577 2.165.252.13.458.204.755.379 2.285 1.337 5.466 3.007 7.513 4.279l7.481 4.272c.357.157.398.29.688.476.807.52-.134.33.493.413.224-.159 1.375-1.95 1.366-2.303.142-.359.36-.586.469-.898.129-.367-.044-.577-.1-.959.036.595.028.21-.336.341-.267-.316-3.756-2.173-4.402-2.611-1.189-.806-2.559-1.185-4.367-2.515L90.857 74.92c-.474-.248-.934-.59-1.408-.862-.487-.28-.94-.589-1.452-.826-1.968-.909-2.813-1.69-4.405-2.576-.231-.129-.524-.212-.784-.364-.254-.149-.374-.278-.679-.451-.275-.157-.516-.266-.8-.436l-4.332-2.463c-2.443-1.606-11.181-6.315-12.28-7.172l2.888-1.72c1.377-.688 3.86-2.307 4.445-2.565.425-.188 1-.55 1.45-.816.912-.539 1.954-1.117 2.936-1.706 1.013-.608 1.997-1.077 2.944-1.672l4.412-2.598c.247-.125.46-.254.742-.405.264-.141.515-.211.783-.35 2.494-1.293 6.318-3.92 8.777-5.25 2.169-1.175 3.712-1.97 5.943-3.344 1.521-.937 3.241-1.76 4.489-2.506l2.892-1.747c.508-.27.954-.546 1.422-.839.648-.405 2.433-1.794 3.123-1.331l.022-.236c-.036-.645-1.814-3.584-2.185-3.86-.276-.19-.209.23-.215-.176.073.485.12.492-.249.767-.24.18-.463.262-.712.424-.347.226-.467.222-.803.44-.304.197-.337.25-.691.443-.499.273-.892.592-1.474.896-.562.294-.95.486-1.48.785-5.747 3.243-11.968 7.024-17.76 10.208-2.822 1.551-6.022 3.638-8.827 5.176l-2.97 1.682c-1.046.633-1.957 1.052-2.974 1.667-.934.565-1.84 1.237-2.91 1.709-1.506.663-4.966 3.22-6.039 3.318.145-9.028.015-18.162.02-27.206.004-8.979-.172-18.113.01-27.04-1.012-.198-3.004.177-4.175-.08-.093 2.143.103 4.558.108 6.756.016 7.147.089 47.19-.075 47.572-.328.091-.572-.17-.8-.334l-5.122-3.007c-2.217-1.092-6.5-3.91-8.82-5.093-1.746-.89-2.712-1.565-4.488-2.542-.509-.28-.8-.542-1.404-.85-1.027-.525-2.02-1.233-2.943-1.7-1.032-.522-2.035-1.19-3.018-1.733l-2.235-1.279c-.253-.146-.385-.298-.663-.46-1.021-.59-1.997-1.047-2.997-1.657l-5.87-3.388c-.472-.25-.91-.628-1.482-.898-2.35-1.104-3.804-2.225-5.876-3.4-.326-.186-1.223-.68-1.524-.64z"
        ></path>
        <path
          fill="#f5c89e"
          d="M69.485 34.013l3.164 1.274c.358.141.489.15.812.33.77.427.951.187 2.31.895 1.143.169 1.066.435 1.52.608.655.25.832.185 1.42.55-.059.421-.616.731-1.142 1.052-.838.51-1.44 1.329-2.465 2.056-.454.323-.728.586-1.296.985l-3.804 2.98c-.423.39-.689.908-1.391.825-.085-.916.03-2.076.015-3.033-.029-1.81-.143-7.905.041-8.972.384.017.653.122.816.45zm15.476 1.554c.023-.942.535-2.158.905-3.157.307-.83.68-2.134.922-2.91l1.667-5.102c.337-1.128.883-.058 2.482 1.45.667.63 1.234 1.3 1.921 1.924.23.208 3.678 3.617 3.77 3.902-.398.435-2.226.839-2.881 1.037-1.097.332-1.857.628-2.92.945-.657.196-5.188 1.882-5.866 1.91zM73.99 15.76c1.914-.287 3.336.464 4.552 1.327 2.693 1.911 2.853 6.104.796 8.47-.802.923-2.138 2.014-3.838 2.06-2.368.066-3.263-.15-4.658-1.357-3.922-3.395-2.134-9.706 3.148-10.5zm35.81 13.065c-.257-.784-1.482-2.214-1.992-2.99-1.613-2.455-3.557-4.54-5.542-6.678-.45-.485-.683-.705-1.232-1.251-.419-.418-.869-.74-1.274-1.109-.502-.457-.798-.731-1.333-1.156-2.94-2.342-1.943-1.867-5.552-4.179-1.069-.684-1.997-1.337-3.026-1.96l-3.132-1.728-10.663-4.047c-4.965-1.413-11.056-2.058-16.4-2.045-.155 0-.433-.008-.575.002-.147.01-.161.003-.301.042-.288.079-.091-.012-.227.111 1.17.257 3.163-.118 4.176.08-.183 8.927-.007 18.061-.011 27.04-.005 9.044.125 18.178-.02 27.206 1.073-.099 4.533-2.655 6.038-3.318 1.07-.472 1.978-1.144 2.91-1.709 1.018-.615 1.929-1.034 2.974-1.667l2.97-1.682c2.806-1.538 6.006-3.625 8.829-5.176 5.79-3.184 12.012-6.965 17.76-10.208.53-.3.917-.491 1.48-.785.581-.304.974-.623 1.473-.895.354-.194.387-.247.69-.443.337-.218.457-.215.804-.44.25-.163.472-.246.712-.425.369-.275.322-.282.249-.767.006.405-.06-.013.215.177z"
        ></path>
        <path
          fill="#f5c89e"
          d="M47.77 96.283c.583-1.516.46-2.256 1.024-2.349l2.052 4.17c.476 1.43.243.592.581 1.198l2.088 4.195c.336.248.214.113.421.54.117.24.176.397.329.672.287.519.618.583.326 1.22-.693.186-3.93.057-4.891.058l-4.422.016c-.785-.014-.66-.173-.509-1.465.079-.671.204-.606.444-1.091.224-.453.22-.773.349-1.25.11-.406.33-.617.47-1.113.126-.452.127-.808.311-1.256.561-1.365.323-1.395.831-2.341.34-.635.143-.88.596-1.204zM26.702 89.8l1.691.498c.531.175 1.175.382 1.65.48l5.12 1.405c.388.102 1.009.412 1.531.556.654.18 3.18.66 3.505.933-.05.896-.893.703-2.63 1.673l-4.332 2.218c-.527.274-1.066.457-1.538.73-1.112.646-1.174.492-2.33 1.18l-.6.219c-.648-.795-.973-3.763-1.13-4.74-.172-1.07-.951-4.494-.937-5.152zm20.587-13.843c1.744-.636 3.703.156 4.835.933 4.389 3.014 2.866 9.44-1.958 10.778-3.489.968-6.531-1.594-7.3-4.393-.702-2.55.598-5.246 2.428-6.347 1.627-.98.322-.361 1.995-.971zM11.397 90.495c.349.781 1.484 2.3 2.028 3.021.722.96 1.327 1.7 2.156 2.818.747 1.009 1.531 1.806 2.349 2.636l2.375 2.487c.393.445.745.82 1.216 1.276l5.503 4.34c.594.39.892.685 1.457 1.038.536.335 1.061.543 1.61.89 2.142 1.354 2.286 1.405 4.675 2.667 3.254 1.718 3.86 1.664 6.93 2.912l3.675 1.163c6.971 1.752 9.633 2.081 16.436 2.151 1.048.011.905-.01 1.032-.235h-4.29c-.1-1.018.112-2.273.125-3.395l-.02-10.182c-.031-4.49-.149-9.103-.064-13.576.086-4.503.067-9.054.086-13.577L58.65 63.34c-.673.061-1.065.49-1.6.807l-4.395 2.6c-1.813 1.135-3.926 2.16-5.908 3.379l-1.478.903c-1.864 1.118-4.058 2.205-5.91 3.364l-4.388 2.524a5.598 5.598 0 00-.213.127l-4.195 2.45c-.145.087-.257.133-.372.19-1.099.537-2.824 1.659-4.031 2.333l-13.275 7.642c-.474.233-1.3.429-1.135.983-.203-.179-.124-.09-.353-.147z"
        ></path>
        <path
          fill="#f5c89e"
          d="M12.92 67.648c1.826-.59 3.78-1.048 5.629-1.536l7.136-2.107c.54-.21 1.21-.48.47.46L24.332 67.3c-.558.92-1.216 1.748-1.888 2.742l-1.404 2.11c-2.584 3.823-2.113 4.066-3.237 2.505l-1.91-2.384c-.394-.474-.771-1.242-1.734-2.459-.457-.578-1.214-1.449-1.24-2.167zm29.42-11.864c.157.776-.275.93-.616 1.392-.38.518-1.079 2.061-1.447 2.65l-3.026 4.896c-.248.531-.275.893-1.015.836-.625-1.164-.968-1.62-1.78-2.463l-1.494-1.786c-.29-.296-.293-.17-.506-.493-.018-.027-.062-.114-.079-.142l-2.642-3.625c-.334-.485-.77-.252-.914-1.224zm-26.547-9.97c.82-.16 1.893-.097 2.654.16 2.13.72 3.73 2.44 4.13 4.875.301 1.83-.467 3.535-1.224 4.643-.93 1.363-2.258 1.921-3.823 2.174-5.258.847-9.175-5.359-5.564-9.64 1.2-1.424 2.038-1.86 3.827-2.211zM9.627 87.35c.644-.862.192-.467 1.213-1.07 2.026-1.196 3.736-2.286 5.87-3.419l16.359-9.439c.462-.273.95-.485 1.474-.788.516-.298.942-.61 1.456-.908l5.89-3.398c2.27-1.3 3.532-1.921 5.966-3.42 2.332-1.436 5.028-2.821 7.382-4.288.427-.266 1.229-.443 1.214-1.114l-4.254-2.286c-.314-.207-.304-.284-.662-.463-.284-.141-.542-.243-.818-.427-.86-.572-1.931-1.275-2.877-1.758-.704-.36-2.423-1.496-2.962-1.68l-2.956-1.666c-1.014-.599-1.78-1.162-2.908-1.742l-4.407-2.492c-.507-.282-.918-.597-1.477-.879-1.228-.62-1.988-1.2-2.855-1.684l-4.394-2.5c-.272-.144-1.207-.626-1.523-.865l-2.95-1.709c-.526-.315-.72-.516-1.372-.86l-4.492-2.523c-.27-.14-.41-.25-.703-.439-.36-.23-.468-.205-.78-.374l-1.395-.947c-.415-.225-1.06-.483-1.511-.776-.209-.135-.398-.32-.65-.46-.397-.222-.518-.142-.863-.397l.12-.484c-.294.203-.115.017-.313.3l-.526 1.175c-.947 1.795-.638 1.255-1.378 2.927-.225.511-.484.934-.696 1.43-1.177 2.758-1.813 5.425-2.61 8.243-.904 3.193-1.602 10.283-1.599 13.562.003 2.414.048 6.03.558 8.046.3 1.182.624 3.814 1.027 5.41l1.444 5.11c.377.932.862 2.243 1.162 3.173.3.934 2.48 5.523 2.796 5.879z"
        ></path>
        <path
          fill="#f5c89e"
          d="M47.614 25.817c2.75-.723 6.216 1.336 7.006 4.762.76 3.294-1.945 6.58-4.617 7.02-3.596.592-6.493-1.326-7.236-4.752-.427-1.97.296-3.522 1.121-4.724.391-.57 1.025-1.002 1.612-1.444.749-.564 1.007-.571 2.114-.862zm-14.31-5.347c.649-.342.578-.652 1.379-.61 0 .083.16 12.942-.054 13.494a.55.55 0 01-.107.024l-.306.016c-.419-.067-.471-.437-1.027-.808-.795-.53-1.362-1.293-1.774-1.49-1.191-.567-.299-.681-1.176-1.08-1.133-.515-1.046-.826-1.863-1.447-.85-.646-3.35-2.056-3.485-3.005zm7.672 1.147c-.015-1.021 2.259-5.049 2.748-5.986.493-.946.969-1.905 1.45-2.836.556-1.08.87-1.8 1.354-2.97.643.089 3.395 3.083 4.083 3.743 1.23 1.183 1.98 2.165 3.442 3.46l.443.553c-.515.356-2.598.86-3.329 1.077zm-29.634 7.567c.3-.038 1.198.455 1.525.64 2.071 1.176 3.526 2.297 5.875 3.401.573.27 1.01.649 1.481.898l5.871 3.388c1 .61 1.976 1.067 2.997 1.658.278.16.41.313.663.46l2.235 1.278c.983.542 1.986 1.211 3.018 1.733.923.467 1.916 1.175 2.943 1.7.605.308.895.57 1.404.85 1.776.977 2.742 1.652 4.488 2.542 2.32 1.183 6.603 4 8.82 5.093l5.122 3.006c.228.165.472.426.8.335.164-.382.091-40.425.075-47.572-.005-2.198-.201-4.613-.108-6.756-2.213-.344-9.918.852-12.287 1.615-1.178.38-2.364.699-3.572 1.055-1.19.352-2.314.852-3.376 1.27l-4.801 2.11-4.557 2.585c-2.678 1.797-2.804 1.802-5.391 3.874-.871.697-1.673 1.359-2.552 2.09-.332.275-.254.168-.575.558l-1.154 1.098c-.253.226-.398.33-.654.597-.838.87-3.738 4.061-4.36 4.927-.336.466-.557.867-.93 1.331-.942 1.178-1.381 1.994-2.002 2.749-.35.426-.793.86-.998 1.487z"
        ></path>
        <path
          fill="#f5c89e"
          d="M68.731 104.535c-.289-1.678.663-3.579 1.367-4.495.912-1.187 1.945-1.872 3.869-2.133 1.648-.223 3.623.382 4.64 1.252 2.477 2.116 2.823 5.915.778 8.477-1.483 1.858-4.235 2.593-6.62 1.872-.414-.125-1.63-.884-1.92-1.112-1.067-.837-1.838-2.256-2.114-3.861zm20.575-16.421c.821.007 2.508.558 3.408.815 3.081.88 1.4 1.172-1.05 3.943-.283.32-.771.667-1.058.968-.361.38-.546.57-.955.983l-1.998 2.07c-.34.405-.537.788-1.185.837-.192-.268-.428-.874-.564-1.328l-.397-.854c-.784-1.312-1.444-2.936-2.197-4.252l-1.86-3.898c-.223-.526-.584-.765-.507-1.51.439-.012 3.388.939 4.132 1.128.926.236 3.647 1.132 4.231 1.098zm-15.605-3.355c-.3.68-.514.984-.756 1.716-.333 1.004-1.27 2.932-1.735 4.294-.162.475-.07.527-.58.529-.363-.578-.705-3.076-.942-3.96-.348-1.299-.719-2.488-.996-3.727-.304-1.36-.645-2.392-.964-3.763-.246-1.06-.898-2.915-.852-3.96.541-.017 7.49 1.402 8.582 1.666l1.109.28c-.011.83-1.065 2.69-1.401 3.51A139.542 139.542 0 0173.7 84.76zm-10.875 32.964c.168-.183.042.144.224-.248.269.355-.146.137.442.228.568.088 3.14-.22 3.737-.293 1.225-.15 2.843-.29 4.058-.558 7.956-1.758 13.043-3.492 20.027-7.82 3.265-2.022 7.97-5.527 10.366-8.179 1.53-1.692 2.811-2.94 4.395-4.885.772-.947 1.214-1.81 1.958-2.68.454-.53 1.632-2.128 1.849-2.744-.628-.083.313.107-.494-.413-.29-.186-.331-.32-.688-.476l-7.481-4.272c-2.047-1.272-5.228-2.942-7.512-4.28-.298-.174-.504-.248-.756-.378-.963-.496-2.123-1.46-3.577-2.165-2.056-.998-3.038-1.828-4.445-2.577l-8.967-5.18c-.997-.663-2.049-1.135-2.967-1.682-1.193-.71-3.45-2.098-4.44-2.56-1.053-.491-1.962-1.203-2.922-1.711-1.508-.798-.852-.598-1.413-.956-.007-.004-1.289-.63-1.554-.62-.25 1.587.012 4.965.021 6.754.06 11.257.181 22.97.097 34.167-.016 2.071-.25 12.329.042 13.528z"
        ></path>
        <path
          fill="#f5c89e"
          d="M97.166 65.564c.523-.235 1.316-.236 2.017-.406l11.524-2.84c.866-.199.93-.54 2.037-.457.058.78-.276 1.184-.373 1.838-.108.724-.154 1.392-.253 2.03-.094.614-.131 1.323-.227 1.928l-1.025 5.636c-.275.827-1.278-.219-1.974-.567-.338-.17-.45-.165-.765-.376-.203-.137-.4-.31-.61-.405l-3.54-2.023c-.628-.223-.742-.395-1.392-.84-1.312-.895-2.916-1.58-4.2-2.367-.777-.477-1.218-.168-1.219-1.15zM80.773 53.796c.302-.024 2.674 1.108 3.24 1.375.561.264 1.107.428 1.741.746l5.071 2.153c1.25.496 2.35 1.16 3.55 1.374l-.059.627c-2.834 1.003-4.23 1.813-6.842 2.814-2.337.896-3.941 1.702-6.054 2.645l-.228.094c-.232.064-.19.04-.452.029zm21.134-7.965c3.408-.641 6.5 2.155 6.803 4.963.392 3.648-1.943 6.425-4.962 6.927-.973.161-1.985-.011-2.716-.216-5.647-1.577-5.997-10.382.875-11.674zm9.34 42.41c.401-.276.288-.162.503-.617l1.008-2.291c1.466-3.21 2.697-5.668 3.685-9.317 2.937-10.846 2.964-19.882.474-30.765-1-4.374-2.573-7.855-4.465-11.829-.148-.31-.222-.525-.467-.737l-.022.236c-.69-.463-2.475.926-3.123 1.331-.468.293-.914.57-1.422.84l-2.892 1.746c-1.248.747-2.967 1.57-4.49 2.506-2.23 1.374-3.773 2.169-5.942 3.343-2.459 1.332-6.283 3.958-8.776 5.25-.269.14-.52.21-.784.35-.283.152-.495.28-.742.406l-4.412 2.599c-.947.594-1.931 1.063-2.944 1.671-.982.59-2.024 1.167-2.936 1.706-.45.266-1.025.628-1.45.816-.585.258-3.068 1.877-4.445 2.565l-2.888 1.72c1.099.857 9.837 5.566 12.28 7.172l4.333 2.463c.283.17.524.279.8.436.304.173.424.302.679.451.26.153.552.236.783.364 1.592.886 2.438 1.667 4.405 2.576.513.237.965.545 1.452.826.474.272.934.614 1.408.862l11.654 6.68c1.808 1.329 3.178 1.708 4.367 2.514.646.438 4.135 2.295 4.402 2.611.364-.13.372.254.337-.34.055.38.228.59.099.958-.11.312-.327.54-.469.898z"
        ></path>
        <path
          fill="#cc4330"
          d="M15.793 45.815c-1.79.352-2.626.787-3.827 2.21-3.61 4.282.306 10.488 5.564 9.64 1.565-.252 2.893-.81 3.823-2.173.757-1.108 1.525-2.812 1.224-4.643-.4-2.435-2-4.156-4.13-4.875-.76-.257-1.833-.32-2.654-.16z"
        ></path>
        <path
          fill="#cc4330"
          d="M47.29 75.958c-1.674.61-.369-.008-1.996.97-1.83 1.102-3.13 3.798-2.429 6.348.77 2.8 3.812 5.361 7.301 4.393 4.824-1.338 6.347-7.764 1.958-10.778-1.132-.778-3.09-1.569-4.835-.933z"
        ></path>
        <path
          fill="#cc4330"
          d="M47.614 25.817c-1.107.291-1.365.298-2.114.862-.587.442-1.221.874-1.612 1.444-.825 1.202-1.548 2.754-1.12 4.724.742 3.426 3.639 5.344 7.234 4.751 2.673-.44 5.378-3.725 4.618-7.019-.79-3.426-4.256-5.485-7.006-4.762z"
        ></path>
        <path
          fill="#cc4330"
          d="M101.907 45.83c-6.872 1.293-6.522 10.098-.875 11.675.73.205 1.743.377 2.716.216 3.019-.502 5.354-3.279 4.962-6.927-.303-2.808-3.395-5.604-6.803-4.963z"
        ></path>
        <path
          fill="#cc4330"
          d="M73.99 15.761c-5.282.794-7.07 7.105-3.148 10.5 1.395 1.207 2.29 1.423 4.658 1.358 1.7-.047 3.036-1.138 3.838-2.06 2.057-2.367 1.897-6.56-.796-8.47-1.216-.863-2.638-1.615-4.552-1.327z"
        ></path>
        <path
          fill="#cc4330"
          d="M68.731 104.535c.276 1.605 1.047 3.024 2.114 3.86.29.23 1.506.988 1.92 1.113 2.385.721 5.137-.014 6.62-1.872 2.045-2.562 1.699-6.36-.777-8.477-1.018-.87-2.993-1.475-4.641-1.252-1.924.26-2.957.946-3.869 2.133-.704.916-1.656 2.817-1.367 4.495z"
        ></path>
        <path
          fill="#f8bb0a"
          d="M97.166 65.564c.001.983.442.674 1.22 1.15 1.283.788 2.886 1.473 4.198 2.369.651.444.765.616 1.393.84l3.54 2.022c.21.096.407.268.61.405.315.211.427.206.765.376.696.348 1.7 1.394 1.974.567l1.025-5.636c.096-.605.133-1.314.227-1.927.099-.639.145-1.307.253-2.03.097-.655.43-1.06.373-1.839-1.107-.082-1.17.258-2.037.456l-11.524 2.84c-.7.17-1.494.172-2.017.407z"
        ></path>
        <path
          fill="#f2802e"
          d="M80.74 65.653c.262.011.22.035.452-.029l.228-.094c2.113-.943 3.717-1.749 6.054-2.645 2.612-1 4.008-1.811 6.842-2.814l.06-.627c-1.2-.215-2.301-.878-3.55-1.374l-5.071-2.153c-.635-.318-1.18-.482-1.742-.746-.566-.267-2.938-1.399-3.24-1.375z"
        ></path>
        <path
          fill="#f2802e"
          d="M70.63 91.298c.51-.002.418-.054.58-.529.465-1.362 1.402-3.29 1.735-4.294.242-.732.457-1.036.756-1.716.49-1.107.989-2.253 1.465-3.415.336-.82 1.39-2.68 1.4-3.51l-1.108-.28c-1.093-.264-8.04-1.683-8.582-1.666-.046 1.045.606 2.9.852 3.96.319 1.37.66 2.404.964 3.763.277 1.239.648 2.428.996 3.728.237.883.579 3.38.942 3.959z"
        ></path>
        <path
          fill="#f2802e"
          d="M40.976 21.617l10.191-2.959c.73-.218 2.814-.72 3.329-1.077l-.443-.553c-1.463-1.295-2.212-2.277-3.442-3.46-.688-.66-3.44-3.654-4.083-3.743-.483 1.17-.798 1.89-1.355 2.97-.48.93-.956 1.89-1.45 2.836-.488.937-2.762 4.965-2.747 5.986z"
        ></path>
        <path
          fill="#f8bb0a"
          d="M24.891 25.564c.136.95 2.635 2.359 3.485 3.005.817.62.73.932 1.863 1.447.877.399-.015.513 1.176 1.08.412.197.979.96 1.774 1.49.556.371.608.74 1.027.808l.305-.016a.55.55 0 00.108-.024c.214-.552.054-13.41.054-13.493-.801-.043-.73.267-1.38.61z"
        ></path>
        <path
          fill="#f8bb0a"
          d="M85.904 96.402c.386.28.328.445.53.834l.096.157a.595.595 0 00.053.077c.802-.18.84-.752 1.937-1.858l3.75-3.824c.3-.216 1.628-1.52 1.828-2.148-1.08-.292-1.891-.691-2.308-.759a9.03 9.03 0 01-1.234-.276c-.498-.138-.94-.16-1.25-.491-.584.034-3.305-.862-4.23-1.098-.745-.19-3.694-1.14-4.133-1.129-.077.746.284.985.508 1.511l1.86 3.898c.752 1.316 1.412 2.94 2.196 4.252z"
        ></path>
        <path
          fill="#f8bb0a"
          d="M28.82 55.825c.145.972.581.74.915 1.224l2.642 3.625c.017.028.061.115.079.142.213.323.215.197.506.493l1.494 1.786c.812.843 1.155 1.299 1.78 2.463.74.057.767-.305 1.015-.836l3.026-4.895c.368-.59 1.067-2.133 1.447-2.65.34-.464.773-.617.616-1.393z"
        ></path>
        <path
          fill="#f2802e"
          d="M12.92 67.648c.026.718.783 1.59 1.24 2.167.963 1.217 1.34 1.985 1.734 2.459l1.91 2.384c1.124 1.561.653 1.318 3.237-2.505l1.404-2.11c.672-.994 1.33-1.821 1.888-2.742l1.821-2.836c.74-.94.07-.67-.469-.46l-7.136 2.107c-1.848.488-3.803.946-5.63 1.536z"
        ></path>
        <path
          fill="#f2802e"
          d="M35.163 92.184l-5.12-1.405c-.475-.097-1.119-.305-1.65-.48l-1.691-.498c-.014.658.765 4.081.937 5.153.157.976.482 3.944 1.13 4.739l.6-.219c1.156-.688 1.218-.534 2.33-1.18.471-.273 1.011-.456 1.538-.73l4.332-2.218c1.737-.97 2.58-.777 2.63-1.673-.325-.273-2.85-.753-3.505-.933-.523-.144-1.143-.454-1.53-.556z"
        ></path>
        <path
          fill="#f2802e"
          d="M84.961 35.566c.678-.028 5.209-1.714 5.867-1.91 1.062-.317 1.822-.613 2.919-.945.655-.198 2.483-.602 2.88-1.037-.09-.285-3.54-3.694-3.769-3.902-.687-.624-1.254-1.294-1.921-1.924-1.6-1.508-2.145-2.578-2.482-1.45L86.788 29.5c-.242.776-.615 2.08-.922 2.91-.37.999-.882 2.215-.905 3.156z"
        ></path>
        <path
          fill="#f8bb0a"
          d="M47.77 96.283l-1.904 5.791c-.149.402-.17.79-.33 1.216-.31.827-.777 1.464-.618 2.516 2.515.079 6.034-.112 8.29-.015.174.007.426.046.571.047 1.696.009-.084-1.39-.264-2.341l-2.088-4.195c-.339-.606-.105.232-.581-1.198l-2.052-4.17c-.564.093-.441.833-1.024 2.349z"
        ></path>
        <path
          fill="#f8bb0a"
          d="M75.77 36.511c-1.358-.707-1.54-.467-2.309-.894-.323-.18-.454-.189-.812-.33l-3.164-1.274a2.382 2.382 0 00-.666-.077c-.11.906-.121 11.119 0 11.428.413.11.764-.503 1.093-.832.486-.485 2.056-1.53 2.441-1.86l2.957-2.47c1.402-.928 1.027-.96 1.706-1.446.197-.14 1.123-.694 1.27-.86-.186-.692-.668-.418-1.254-.656-.27-.11-.128-.193-.596-.379-.123-.048-.16-.03-.344-.122l-.244-.163c-.015-.043-.053-.042-.077-.065z"
        ></path>
        <path
          fill="#f4b551"
          d="M75.77 36.511c.025.023.063.022.078.065l.244.163c.184.092.22.074.344.122.468.186.326.27.596.379.586.238 1.068-.036 1.255.656-.148.166-1.074.72-1.27.86-.68.487-.305.518-1.707 1.446l-2.957 2.47c-.385.33-1.955 1.375-2.44 1.86-.33.329-.68.943-1.094.832-.121-.309-.11-10.522 0-11.428.32 0 .463.028.666.077-.163-.328-.432-.433-.816-.45-.184 1.067-.07 7.163-.041 8.972.015.957-.1 2.117-.015 3.033.702.083.968-.436 1.391-.825l3.804-2.98c.568-.399.842-.662 1.296-.985 1.024-.727 1.627-1.545 2.465-2.056.526-.321 1.083-.63 1.142-1.052-.588-.365-.765-.3-1.42-.55-.454-.173-.377-.439-1.52-.609z"
        ></path>
        <path
          fill="#fcda68"
          d="M53.515 103.497c.18.95 1.96 2.35.264 2.34-.145 0-.397-.039-.572-.046-2.255-.097-5.775.094-8.29.015-.158-1.052.31-1.689.62-2.516.16-.426.18-.814.329-1.216l1.904-5.791c-.453.324-.255.57-.596 1.204-.508.946-.27.976-.83 2.341-.185.448-.186.804-.313 1.256-.14.496-.36.708-.47 1.114-.127.476-.124.796-.348 1.249-.24.485-.365.42-.444 1.091-.151 1.292-.277 1.451.509 1.465l4.421-.016c.962 0 4.199.128 4.892-.058.292-.637-.04-.701-.326-1.22-.153-.275-.212-.432-.329-.672-.207-.427-.085-.292-.42-.54z"
        ></path>
        <path
          fill="#f4b551"
          d="M85.904 96.402c.137.454.372 1.06.564 1.328.648-.05.845-.432 1.185-.838l1.998-2.07c.41-.412.594-.602.955-.982.287-.301.775-.647 1.058-.968 2.45-2.77 4.131-3.062 1.05-3.943-.9-.257-2.586-.808-3.408-.815.31.332.752.353 1.25.491.505.14.69.188 1.234.276.417.068 1.228.467 2.308.759-.2.628-1.529 1.932-1.828 2.148l-3.75 3.824c-1.097 1.106-1.135 1.678-1.937 1.858a.595.595 0 01-.053-.077l-.096-.157c-.202-.389-.144-.554-.53-.834z"
        ></path>
      </g>
    </svg>