 <svg
      xmlns="http://www.w3.org/2000/svg"
      width="24"
      height="24"
      version="1.1"
      viewBox="0 0 85.227 117.58"
    >
      <g fillRule="evenodd" transform="translate(-17.373 -1.229)">
        <path
          fill="#cc442f"
          d="M87.388 82.885c-.203 2.697-.656 5.49-.988 8.186l-1.638 12.135c-.173 1.24-.537 2.258-1.701 2.884-1.608.864-6.66.54-8.69.54H60.673c-1.343 0-2.751.076-3.891-.768-1.095-.811-1.228-1.941-1.389-3.189-.175-1.356-.338-2.718-.504-4.076-.328-2.685-.753-5.382-1.126-8.065-.709-5.083-2.061-10.988.43-15.734.976-1.86 2.658-3.578 4.434-4.69 2.318-1.45 4.597-1.841 7.292-1.948 2.81-.112 6.234-.159 9.025.033 2.624.18 4.877.641 7.08 2.157 4.455 3.067 5.76 7.309 5.365 12.535zM61.193 56.047c2.702-.223 5.941-.09 8.692-.09 7.933 0 14.446-.734 20.605 5.6.996 1.025 3.19 3.576 2.94 5.06-.353 2.095-2.714 1.903-3.882.359-1.49-1.97-2.117-3.013-4.243-4.478-1.936-1.333-4.098-1.99-6.417-2.264-2.755-.326-5.74-.22-8.522-.22-8.134 0-14.39-.811-19.497 6.742-1.06 1.567-3.413 2.146-3.99.06-.425-1.538 1.682-3.994 2.68-5.057 1.398-1.488 3.149-2.844 4.977-3.76 1.821-.91 4.634-1.785 6.657-1.952zm-23.494 28.28l-.011 2.804-.009 3.511c1.767-1.077 1.702-3.366 2.106-4.054.238-.404 2.35-.227 2.862-.23 1.68-.009.997.513.908 1.736-.104 1.419-.964 3.225-1.884 4.318-1.15 1.365-1.893 1.925-3.446 2.795.767.571 1.695.95 2.551 1.565.758.543 1.516 1.324 2.156 2.007 2.092 2.229 3.23 6.514 2.778 9.53-.288 1.927-1.254 4.335-2.501 5.823-.618.737-1.4 1.389-2.005 2.117 2.675 1.962 4.224 2.38 7.56 2.499 3.303.118 6.747.028 10.065.028h30.123c2.914 0 6.027.048 8.616-1.478 5.716-3.37 5.004-9.371 5.004-15.105V72.07c0-3.182.088-6.428-.531-9.564-.974-4.938-3.498-9.514-7.013-13.095-4.672-4.76-5.556-5.31-8.399-11.696H53.622c-1.477 3.71-3.247 6.68-6.104 9.504-1.682 1.662-2.018 1.573-3.876 3.895-1.28 1.602-2.21 2.869-3.128 4.724-2.294 4.637-2.835 7.616-2.835 12.787 0 5.228-.047 10.477.02 15.702z"
        ></path>
        <path
          fill="#d8dadc"
          d="M74.181 100.43c0-.676-.132-3.404.123-3.821.346-.192 3.47-.195 3.808 0 .19.33.229 3.56-.004 3.804-.286.3-3.436.155-3.927.017zm-12.167 0c0-4.615-.287-3.935 2.103-3.935.803 0 5.58-.224 5.894.199.207.277.113 2.377.115 2.857.008 1.386-.873.988-2.083.988-1.561 0-4.648.17-6.029-.109zm6.079-8.091c0-4.713-.61-3.956 4.115-3.956h4.006c.693 0 3.48-.181 3.857.268.333.397.325 3.276-.084 3.607-.404.326-6.887.18-7.859.18-1.344 0-2.7.068-4.035-.1zm-8.102 0c0-.69-.135-3.4.128-3.833.349-.203 3.474-.207 3.813 0 .186.337.23 3.57-.004 3.81-.238.243-3.476.137-3.937.023zm2.023-16.023c1.38-.131 13.329-.15 15.163-.09 1.09.035 1.052.64 1.05 1.531-.003.526.116 1.878-.22 2.253-.418.469-4.032.27-4.837.27-3.166 0-7.026.073-10.095.002-1.086-.025-1.064-.573-1.061-1.482.002-.828 0-1.656 0-2.484zm25.374 6.569c.395-5.226-.91-9.468-5.366-12.535-2.202-1.516-4.455-1.976-7.08-2.157-2.79-.192-6.215-.145-9.024-.033-2.695.107-4.974.497-7.292 1.949-1.776 1.111-3.458 2.829-4.434 4.689-2.491 4.746-1.139 10.651-.43 15.734.373 2.683.798 5.38 1.126 8.065.166 1.358.329 2.72.504 4.076.161 1.248.294 2.378 1.389 3.189 1.14.845 2.548.767 3.891.767h13.7c2.029 0 7.081.325 8.689-.54 1.164-.625 1.528-1.644 1.701-2.883L86.4 91.071c.332-2.695.785-5.489.988-8.186z"
        ></path>
        <path
          fill="#e25b48"
          d="M41.204 116.25c.606-.73 1.387-1.381 2.005-2.118 1.247-1.488 2.212-3.897 2.501-5.824.451-3.015-.686-7.3-2.778-9.529-.64-.683-1.398-1.464-2.156-2.007-.856-.615-1.784-.994-2.55-1.565-.413.153-.623.35-1.123.48-.373.097-.88.235-1.24.343-1.06.318-1.61.464-2.75.465-.53 0-1.079.012-1.607-.003-1.334-.038-2.187-1.881-2.72-2.032-9.377.7-14.037 10.526-9.89 18.104 1.847 3.376 5.446 5.842 9.298 6.164 1.27.105 6.424.105 7.6-.076 2.294-.352 3.552-1.158 5.41-2.403z"
        ></path>
        <path
          fill="#f5ba00"
          d="M55.945 17.456h28.36c0-1.093.087-14.432-.032-15.133-.228-1.331-1.688-1.074-2.691-1.074H58.829c-3.386 0-2.884.086-2.884 4.726z"
        ></path>
        <path
          fill="#f5ba00"
          d="M53.622 37.715h33.007c-.547-1.159-.555-1.874-.885-2.735-.24-.629-.081-.786-.322-1.44-.118-.318-.069-.478-.073-.809-.006-.517-.063-.368-.19-.77-.154-.49.033-1.101-.124-1.639l-.445-3.16c-.028-.265-.021-.595-.055-.826-.049-.333-.185-.375-.23-.777h-28.36c-.39 1.489-.208 1.56-.35 2.337-.053.283-.15.462-.186.776-.089.743.074.79-.198 1.564-.191.544.054 1.176-.12 1.724-.11.354-.173.239-.189.692-.053 1.544-.178.685-.237 1.525l-.547 2.177a8.939 8.939 0 01-.496 1.361z"
        ></path>
        <path
          fill="#eda600"
          d="M55.945 25.559h28.36c1.26.127 2.007-.32 2.865-1.177.964-.965 1.222-1.482 1.222-2.864-.001-1.592-.225-1.761-1.215-2.871-.858-.961-1.567-1.264-2.871-1.19h-28.36c-1.233-.07-2.065.245-2.876 1.185-.452.523-.553.403-.878 1.126-.385.858-.332.792-.333 1.75 0 .904-.058.875.323 1.68.374.792.31.601.9 1.183.868.857 1.59 1.307 2.863 1.178z"
        ></path>
        <path
          fill="#b82f1a"
          d="M61.193 56.047c-2.023.167-4.835 1.042-6.657 1.953-1.828.915-3.58 2.271-4.977 3.76-.998 1.062-3.105 3.518-2.68 5.056.577 2.086 2.93 1.507 3.99-.06 5.108-7.553 11.363-6.742 19.497-6.742 2.782 0 5.767-.106 8.522.22 2.32.274 4.481.93 6.417 2.264 2.126 1.465 2.753 2.508 4.243 4.478 1.168 1.544 3.53 1.736 3.883-.36.25-1.483-1.945-4.034-2.94-5.059-6.16-6.334-12.673-5.6-20.606-5.6-2.751 0-5.99-.133-8.692.09z"
        ></path>
        <path
          fill="#a1b918"
          d="M28.787 94.46c.532.15 1.385 1.994 2.72 2.032.527.015 1.076.003 1.606.003 1.14-.001 1.69-.147 2.75-.465.36-.108.867-.246 1.24-.343.5-.13.71-.327 1.122-.48 1.553-.87 2.297-1.43 3.446-2.795.92-1.093 1.78-2.9 1.884-4.318.089-1.223.773-1.745-.908-1.735-.512.002-2.624-.175-2.861.23-.405.687-.34 2.975-2.107 4.053-.329.105-.776.78-1.234.687-.07-.471.417-1.077.493-1.414.247-1.105.206-.27.26-1.102.033-.498.077-.22.196-.525.158-.404-.15-.894.294-1.157l.011-2.804c-.807 0-1.615.002-2.423 0-2.644-.005-1.143.773-2.55 4.66-.355.983-1.072 2.743-1.858.87-.553-1.322-.88-2.342-1.123-3.765-.33-1.939-.066-1.783-3.044-1.767-.947.005-1.196.255-1.202 1.202-.018 3.063 1.51 6.56 3.288 8.933z"
        ></path>
        <path
          fill="#b0b4b8"
          d="M62.014 76.316c0 .828.002 1.656 0 2.484-.003.909-.025 1.457 1.06 1.482 3.07.07 6.93-.002 10.096-.002.805 0 4.419.199 4.837-.27.336-.375.217-1.727.22-2.253.002-.892.04-1.496-1.05-1.532-1.834-.06-13.783-.04-15.163.09z"
        ></path>
        <path
          fill="#b0b4b8"
          d="M68.093 92.338c1.334.168 2.691.1 4.035.1.972 0 7.455.146 7.859-.18.409-.33.417-3.21.084-3.607-.377-.45-3.163-.268-3.857-.268H72.21c-4.726 0-4.116-.757-4.116 3.955z"
        ></path>
        <path
          fill="#b0b4b8"
          d="M62.014 100.43c1.381.28 4.468.11 6.029.11 1.21 0 2.091.397 2.084-.99-.003-.48.09-2.579-.116-2.856-.314-.423-5.091-.199-5.894-.199-2.39 0-2.103-.68-2.103 3.935z"
        ></path>
        <path
          fill="#b0b4b8"
          d="M59.991 92.338c.46.115 3.699.22 3.937-.023.235-.24.19-3.473.004-3.81-.339-.207-3.464-.202-3.813 0-.263.434-.128 3.143-.128 3.833z"
        ></path>
        <path
          fill="#b0b4b8"
          d="M74.181 100.43c.491.138 3.64.282 3.927-.017.233-.243.193-3.475.004-3.804-.338-.195-3.462-.192-3.808 0-.255.417-.123 3.145-.123 3.821z"
        ></path>
      </g>
    </svg>