  <svg
      xmlns="http://www.w3.org/2000/svg"
      width="24"
      height="24"
      version="1.1"
      viewBox="0 0 113.904 103.415"
    >
      <g fillRule="evenodd" transform="translate(-2.64 -4.94)">
        <path
          fill="#f6bb00"
          d="M32.159 35.874c-.1.96-.026 2.293-.026 3.297 0 2.443-.153 1.518-.198 2.323-.027.494.078 1.233-.06 1.588-.413 1.057-.068.12-.25 1.011l-.533 1.697c-.008.022-.02.046-.029.068-.176.518.008.355-.232.835l-1.106 2.287c-.014.027-.046.108-.059.136l-1.23 1.97-.04.056-.244.338-.042.055-.043.054c-.09.123-.119.174-.195.29l-1.734 1.854c-.015.013-.038.03-.053.044l-1.71 1.393.015 9.988 6.678 6.687.15.143.105.09 5.142 5.137.048.049.973.966c.099.1.244.253.327.342l3.54 3.552c.059.06.138.132.2.19l3.873 3.877c.013.015.032.037.046.05l.2.191c.02.02.08.075.097.097.15.187.033-.202.137.253h27.418c.04-.965-.096-2.122.187-3.047l.084-.437c.066-.893.09-.754.327-1.476l.384-1.44c.167-1.001.715-1.756 1.004-2.7.113-.37.01-.096.14-.341.08-.154.079-.13.169-.304.011-.022.079-.16.096-.198l.062-.14c.12-.253.02-.087.136-.259l.04-.054c.012-.016.032-.036.044-.051.012-.015.033-.035.045-.05.017-.022.069-.082.085-.105.119-.173.017-.029.138-.25l1.916-2.84.039-.06.762-.865.05-.048.053-.048c.02-.02.083-.074.104-.094l2.587-2.367c.408-.374.95-.583 1.386-.929l.205-.18c.18-.127.106-.06.32-.175l1.266-.74.068-.032.07-.032c.006-.003.297-.146.343-.171l.295-.167c.057-.029.13-.059.195-.088l.962-.342.07-.031 1.4-.496c.623-.311.894-.183 1.512-.377l1.444-.36c.268-.066.565-.062.844-.073.278-.012.698-.002.955-.034.514-.065-.005.005.35-.098.851-.247 2.88-.11 3.783.093.298.068.622.032.93.066.557.061.242.098.687.172 1.043.173 2.345.396 3.248.848l.065.033.118.065c.017.008.04.022.057.029.602.252 1.28.38 1.844.687l.781.471c.242.132.389.126.642.26.361.19.674.569 1.085.595v-1.438l-.235-.067c-.058-.71-.035-.989-.21-1.562-.087-.285-.052-.431-.113-.763-.113-.625-.077-.061-.192-.598-.056-.264-.037-.55-.114-.803l-.257-.599c-.17-.367-.094-.275-.19-.698-.057-.25-.038-.143-.095-.258-.013-.025-.054-.089-.068-.114l-.442-.927c-.01-.017-.025-.04-.034-.058l-1.717-2.952c-.33-.416-.233.025-.274-.461-.152-.278-.033-.068-.125-.194l-.132-.168c-.013-.016-.033-.035-.046-.05l-.175-.212c-.012-.016-.027-.041-.039-.058l-1.255-1.363a24.581 24.581 0 01-.14-.15l-.344-.336a12.644 12.644 0 01-.141-.149c-.104-.114-.028-.048-.136-.155l-.524-.446-.057-.04-1.346-.98c-.742-.585-.186-.155-.774-.488l-1.204-.735c-.018-.01-.041-.027-.06-.037l-.828-.432c-.157-.074-.033-.02-.206-.086l-.754-.312c-.024-.015-.087-.067-.112-.082-.094-.055.006-.027-.195-.096l-2.542-.755c-.558-.125-.311.075-.438-.24h-1.455v-.203l-6.541-.015-27.495.003c0 2.45-.033 1.077.208 2.722l.235.638.019.078c.006.028.008.054.013.084l.625 1.702c.013.027.055.1.069.125.19.338.253.612.71 1.326l.08.115.634.82.047.05 3.372 3.125c.131.119.248.258.403.373l1.812 1.388.055.042.627.536c.017.012.042.026.06.037.018.012.046.022.064.033l.477.396c.117.08-.085.063.284.104V76.89h-9.794c-.059-.163-.041-.102-.102-.189-.298-.432-.41-.424-.429-.443-.16-.158-.131-.144-.286-.296L51.87 72.96l-.047-.05-2.718-2.712a28.83 28.83 0 01-.628-.632c-.161-.167-.11-.126-.292-.29l-3.393-3.395c-.162-.168-.106-.124-.292-.29l-.105-.09-.053-.044c-.157-.138-.317-.269-.367-.505-.175-.819.135-32.285-.043-33.023-.086-.352-.086-.028-.156-.523-.08-.563-.277-1.104-.494-1.64-.075-.185-.02-.051-.071-.219-.29-.942-.254-.699-.674-1.46l-.848-1.285c-.373-.403-.649-.898-1.05-1.277l-2.335-1.834-.063-.035-3.038-1.325c-.218-.067-.39-.01-.623-.056-.574-.112.139-.03-.43-.152-.607-.13-1.34-.019-1.956-.019z"
        ></path>
        <path
          fill="#eca600"
          d="M73.324 86.782l.021 3.878h5.817l7.89.011 15.674-.01h13.769c0-1.17.185-5.678-.167-6.717-.095-.28-.042.184-.119-.367-.022-.156 0-.415 0-.581.002-.666-.07-.437-.162-.808-.117-.465.014-.327-.196-.774l-.15-.82c-.089-.417.004-.016-.156-.329-.129-.253-.056-.12-.161-.42l-.026-.071-.078-.213-.023-.074c-.01-.03-.032-.122-.042-.152l-.99-2.306a1.824 1.824 0 00-.031-.067l-.591-1.057-.036-.062-.032-.065-.152-.332c-.017-.023-.075-.08-.095-.1l-1.18-1.63c-.307-.298-.316-.555-.603-.853l-.096-.097-1.672-1.723-.05-.046-.256-.23c-.094-.084-.008.01-.153-.137l-.63-.631c-.088-.077.003-.02-.165-.126l-.128-.066c-.018-.01-.045-.022-.064-.033l-.12-.074c-.006-.004-.192-.173-.257-.228l-1.02-.734c-.047-.033-.013-.025-.193-.136-.41-.026-.724-.404-1.085-.595-.253-.134-.4-.128-.642-.26l-.78-.47c-.565-.307-1.243-.436-1.845-.688-.017-.007-.04-.021-.057-.03l-.118-.064-.065-.033c-.903-.452-2.205-.675-3.248-.848-.445-.074-.13-.11-.687-.172-.308-.034-.632.002-.93-.066-.904-.203-2.932-.34-3.783-.093-.355.103.164.033-.35.098-.257.032-.677.022-.955.034-.28.011-.576.007-.844.073l-1.444.36c-.618.194-.889.066-1.512.377l-1.4.496-.07.03-.962.343c-.066.03-.138.06-.195.088l-.294.167c-.047.025-.338.168-.344.17l-.07.033-.068.031-1.266.741c-.214.115-.14.048-.32.176l-.205.18c-.436.345-.978.554-1.385.928l-2.588 2.367c-.02.02-.083.074-.104.094l-.052.048c-.015.014-.036.033-.05.048l-.763.866-.039.059-1.916 2.84c-.12.221-.02.077-.138.25-.016.023-.067.083-.085.105-.011.015-.033.035-.045.05-.012.015-.032.035-.043.05l-.041.055c-.116.172-.016.006-.136.26l-.062.14c-.017.038-.084.175-.096.197-.09.175-.088.15-.17.304-.128.245-.026-.029-.139.34-.289.945-.837 1.7-1.004 2.7l-.384 1.441c-.236.722-.26.583-.327 1.476l-.084.437c-.283.925-.147 2.082-.187 3.047z"
        ></path>
        <path
          fill="#eca600"
          d="M8.667 90.661h7.854l15.673.01 7.89-.01h5.818l.004-3.88c-.104-.454.012-.065-.137-.252-.018-.022-.078-.077-.098-.097l-.2-.19c-.013-.014-.031-.037-.045-.05l-3.873-3.878c-.062-.058-.141-.13-.2-.19l-3.54-3.552c-.083-.09-.228-.242-.327-.342l-.973-.966a3.69 3.69 0 00-.048-.049l-5.142-5.136c-.02-.02-.083-.072-.104-.091a34.637 34.637 0 01-.15-.143l-6.678-6.687c-.864 0-2.145-.16-2.83.094-.697.257-.486.098-1.252.203-.47.064-.065.076-.513.166-.29.058-.412-.022-.7.075l-1.264.385-.072.025-.536.24c-.19.083-.086.03-.291.096l-1.803.72c-.02.009-.043.023-.062.034-.019.01-.041.027-.06.038l-.91.447-.06.037-1.084.66-.058.04c-.064.04-.056.034-.121.072l-3.607 2.89c-.013.016-.031.038-.045.052l-.047.05-1.286 1.333c-.011.011-.19.196-.19.198l-.567.79c-.272.238-.365.534-.57.788l-.45.713c-.24.236-.186.261-.343.53l-1.757 3.77c-.009.022-.02.047-.028.07l-.262.707c-.009.02-.023.044-.03.066-.01.022-.02.046-.027.07l-.047.536c-.085.636.018-.034-.191.487l-.289 1.166c-.062.79.06.49-.146 1.21-.47 1.636-.141 4.921-.141 6.744z"
        ></path>
        <path
          fill="#cd442e"
          d="M83.139 41.692l.052 7.83 6.541.015c3.438.125 7.106.01 10.57.01h13.286c1.157.017.968.207.968-1.65V31.9l-31.418-.014z"
        ></path>
        <path
          fill="#4d6378"
          d="M40.084 90.66l-7.89.011c0 .661.063 2.674-.1 3.242-.193.663-.406 1.873-.854 2.443l-.441.735-2.607 2.323c-.71.408-.965.469-1.702.734-.757.273-2.99.461-3.838.168-.022-.008-.047-.02-.069-.027l-1.81-.69-2.426-1.94c-.123-.194-.093-.194-.224-.357l-1.034-1.767c-.701-1.763-.568-2.71-.568-4.875l-7.854.001c0 .962-.124 3.36.013 4.156.094.547.408 1.365.474 2.047.015.161-.012.085.036.255l.9 2.202c.18.351.3.714.543 1.009l.395.672c.367.76.496.718.941 1.386l.516.55c.075.085.064.077.135.156l.853.893c.144.145.062.055.154.137l.103.09c.338.305.66.668 1.045.896.59.348.47.486 1.198.838l.067.03c.02.01.046.02.068.03l.068.027 1.732.887c.047.019.09.04.133.061l1.488.645c.02.01.044.023.065.032l.192.1c.023.007.046.019.07.026.17.047.094.02.255.036.316.03.215-.023.513.07l.363.12c1.588.332 1.345.297 3.388.297.831 0 1.83.12 2.563-.153l.07-.027 1.12-.237c.516-.16.447-.043 1.146-.309.117-.045.113-.033.221-.07l2.379-1.015c.01-.005.26-.185.282-.203.226-.193.938-.546 1.451-.972l.493-.284c.445-.233.482-.438.897-.848l.97-.969c.493-.505-.405.397.095-.099l.05-.048.693-.76c.087-.12.026-.037.111-.18l.866-1.268c.078-.163.06-.185.142-.342l.554-.9c.29-.465.277-.786.482-1.167.252-.47.262-.721.417-1.135.046-.12.05.004.158-.327l.218-.848c.061-.228.037-.307.038-.544.005-.94.055-.269.248-.82.13-.372.045-3.466.045-4.124z"
        ></path>
        <path
          fill="#4d6378"
          d="M110.58 90.66h-7.854c0 1.19.079 3.058-.3 4.179l-1.21 2.36c-.096.109-.076.073-.136.155l-1.03 1.195c-.235.173-.091.049-.308.185l-.428.352c-.625.482-1.457.774-2.146 1.04-1.446.557-3.3.391-4.677-.09l-.917-.352-2.681-1.963c-.625-.924-.842-1.218-1.283-2.235-.477-1.097-.177-.572-.366-1.298-.084-.326-.037.057-.143-.383l-.048-3.134-7.89-.01c0 .731-.092 3.652.037 4.132.186.693.202-.047.255.715l.945 3.224c.058.192.011.174.09.395l.06.134.034.062c.062.115.085.14.11.182l.63 1.017c.817 1.525.338.588.903 1.425l.258.421c.012.016.032.037.045.052.012.016.032.037.045.052l.091.103c.014.014.032.037.046.051l1.18 1.245c.415.415.875.981 1.392 1.226.143.067.024-.014.196.095l.373.305c.017.012.041.027.058.04l1.23.806c.015.013.035.033.05.045l.056.042.06.036.135.06c.107.047.101.031.21.08l2.16.943c.363.135.387.215.8.267l1.694.343c.023.008.047.02.07.027.03.01.106.048.136.058.086.028-.006.027.23.06.555.079 4.08.082 4.557-.089.503-.18 1.883-.355 2.162-.456l.774-.293c.03-.01.11-.044.139-.055l.402-.18c.053-.027-.02-.01.188-.102l4.142-2.55.051-.045.26-.226.05-.047.205-.181c.028-.025.144-.14.148-.143l.045-.053c.019-.02.07-.084.09-.104l.85-.894.143-.148.446-.621c.185-.362.556-.588.792-1.05.086-.169.013-.22.287-.586l.14-.151c.013-.016.034-.036.046-.052l1.079-2.315c.488-1.363.15-.282.38-1.462l.444-1.69c.133-.639.018-3.304.018-4.15z"
        ></path>
        <path
          fill="#f6bb00"
          d="M83.138 31.885l31.418.013v-7.854H83.138z"
        ></path>
        <path
          fill="#b1712b"
          d="M55.696 49.525l27.495-.003-.052-7.83H63.357c-2.053 0-.737-.023-2.031.2-.495.084-.169.043-.552.223-.128.06-.08.031-.211.08-.023.008-.05.016-.072.025-.023.008-.05.016-.072.025l-.141.052c-.029.012-.11.044-.138.057-.212.099-.095.044-.189.102l-.503.273c-.02.01-.046.02-.065.031l-.118.077c-.016.012-.036.032-.051.045l-.208.18c-.017.012-.042.026-.06.036l-1.584 1.423c-.138.164-.09.089-.195.29-.058.111.008.033-.092.198-.035.058-.072.1-.126.165l-.872 1.65c-.081.173.027-.132-.097.194l-.114.564c-.28 1.151-.17.216-.17 1.943z"
        ></path>
        <path
          fill="#e5e6e7"
          d="M102.726 90.66l-15.673.011.048 3.134c.106.44.059.057.143.383.189.726-.11.201.366 1.298.442 1.017.658 1.311 1.283 2.235l2.681 1.963.917.352c1.378.481 3.231.647 4.677.09.69-.266 1.521-.558 2.146-1.04l.428-.352c.217-.136.073-.012.307-.185l1.031-1.195c.06-.082.04-.046.135-.154l1.212-2.361c.378-1.12.3-2.989.3-4.179z"
        ></path>
        <path
          fill="#e5e6e7"
          d="M32.194 90.671l-15.674-.01c0 2.164-.132 3.111.569 4.874l1.034 1.767c.131.163.1.163.224.358l2.425 1.94 1.811.689c.022.008.047.02.069.027.848.294 3.081.105 3.838-.168.737-.265.991-.326 1.702-.734l2.607-2.323.441-.735c.448-.57.661-1.78.853-2.443.164-.568.1-2.58.1-3.242z"
        ></path>
        <path fill="#e5e6e7" d="M32.159 35.874l.036-13.77h-7.82v13.77z"></path>
        <path
          fill="#cd442e"
          d="M106.701 67.164l5.819.031v-9.891h-9.76c.04.486-.056.046.274.46l1.717 2.953.034.058.442.927c.014.025.055.089.068.114.057.115.038.007.095.258.096.424.02.33.19.698l.257.599c.077.252.058.54.114.804.115.536.079-.028.192.597.06.332.026.478.113.763.175.574.152.853.21 1.562z"
        ></path>
        <path
          fill="#e5e6e7"
          d="M99.04 5.135v.29c-.476.053-.138-.073-.346.138-.213.216-.084-.143-.138.347-.477.053-.14-.073-.347.138-.213.216-.084-.143-.138.347-.477.052-.14-.073-.347.138-.213.216-.084-.144-.138.347-.396.043-.314.112-.511.361l-.042.055c-.013.016-.03.038-.044.053-.234.272-.372.381-.372.792h-.291c0 .222.019.333-.039.543l-.446 1.59c0 .273.127.507.187.783.042.198.044.27.077.407l.225.745c.103.388.007.114.144.341l.337.73h.29c.08.729.485.243.485.97 0 .557-.427.447-.484.97-.478.052-.14-.074-.348.137-.213.216-.084-.144-.137.347-.609.067-.73.778-1.26.97v.29c.476.053.138-.072.346.139.213.216.084-.144.138.347.477.052.14-.074.347.137.213.216.084-.143.138.347h.29c.053.478-.072.14.138.348.217.212-.143.084.348.137.052.478-.074.14.137.347.216.213-.143.084.347.138.053.477-.073.14.138.347.216.213-.143.084.347.138v.291c.553-.148.117-.413.776-.485.052-.477-.073-.14.138-.347.216-.213-.144-.084.347-.138.052-.477-.073-.139.138-.347.216-.213-.144-.084.347-.138v-.29c.237-.027.292-.078.431-.248.084-.103.03-.054.116-.175l1.008-1.707s.065-.064.128-.26l.19-.878c.184-.549-.068-.962-.142-1.47-.026-.177.004-.082-.048-.242-.01-.03-.049-.106-.06-.134-.01-.02-.026-.042-.035-.062-.01-.02-.025-.043-.034-.064l-.091-.296c-.054-.226.02-.081-.076-.313-.163-.397-.543-.713-.802-1.04-.388-.488-.454-.594-.202-1.165l.102-.286c.477-.052.139.073.347-.138.213-.216.084.144.137-.347.478-.052.14.074.347-.137.213-.216.085.143.138-.347.477-.053.14.073.347-.138.213-.216.084.143.138-.347h.291c.043-.508-.093-.176.194-.291v-.194c-.233-.084-.308-.219-.538-.432-.139-.13-.061-.052-.197-.19-.014-.015-.033-.037-.047-.05l-.094-.101a8.862 8.862 0 00-.096-.097l-.1-.094c-.148-.143-.176-.183-.336-.343l-.344-.335c-.003-.003-.088-.103-.136-.156-.25-.276-.709-.59-.827-.917h-.194c-.089.237.203.182-.291.194z"
        ></path>
        <path
          fill="#e5e6e7"
          d="M108.835 5.135v.29c-.477.053-.14-.073-.347.138-.213.216-.084-.143-.138.347-.477.053-.14-.073-.347.138-.213.216-.084-.143-.138.347-.477.052-.14-.073-.347.138-.213.216-.084-.144-.138.347-.397.043-.314.111-.512.361-.012.016-.028.04-.041.055-.013.016-.03.038-.044.053-.234.272-.372.381-.372.792h-.291c0 .526-.113.585-.222 1.039-.272 1.138-.327 1.265.043 2.436.007.024.017.049.025.072l.083.208.024.073.274.696c.048.079.05.076.104.186l.031.067.413.362c.053.477-.073.14.138.347.216.213-.144.084.347.138v.97c-.477.052-.14-.074-.347.137-.213.216-.084-.143-.138.347-.477.053-.139-.073-.347.138-.213.216-.084-.144-.137.347-.609.067-.73.778-1.261.97v.29c.477.053.14-.072.347.139.213.216.084-.144.138.347.477.052.14-.073.347.137.213.216.084-.143.138.347h.29c.053.478-.073.14.138.348.216.213-.143.084.347.137.053.478-.073.14.138.347.216.213-.144.085.347.138.052.477-.073.14.138.347.216.213-.144.084.347.138v.291c.553-.148.117-.413.776-.485.052-.477-.073-.14.138-.347.216-.213-.144-.084.347-.138.052-.477-.074-.139.137-.347.216-.213-.143-.084.347-.138v-.29c.238-.027.293-.078.432-.248.084-.103.03-.054.116-.175l1.008-1.707s.065-.064.128-.26l.19-.878c.183-.549-.068-.962-.142-1.47-.026-.177.004-.082-.049-.242-.01-.03-.048-.106-.06-.134-.009-.02-.025-.042-.035-.062-.009-.02-.024-.043-.033-.064l-.091-.296c-.054-.226.02-.081-.076-.313-.163-.397-.543-.713-.802-1.04-.388-.488-.455-.594-.203-1.165l.102-.286c.478-.052.14.073.347-.138.213-.216.084.144.138-.347.477-.052.14.074.347-.137.213-.216.084.143.138-.347.477-.053.14.073.347-.138.213-.216.084.143.138-.347h.29c.044-.508-.092-.176.195-.291v-.194c-.233-.084-.308-.219-.538-.432-.14-.13-.061-.052-.197-.19-.014-.015-.033-.037-.047-.05l-.094-.101a8.862 8.862 0 00-.097-.097l-.1-.094c-.148-.143-.175-.183-.335-.343l-.344-.335c-.003-.003-.088-.103-.136-.156-.25-.277-.709-.59-.827-.917h-.194c-.089.237.203.182-.291.194z"
        ></path>
        <path
          fill="#e5e6e7"
          d="M89.247 5.135v.29c-.477.053-.14-.073-.347.138-.213.216-.084-.143-.138.347-.477.053-.139-.073-.347.138-.213.216-.084-.143-.137.347-.478.052-.14-.073-.348.138-.213.216-.084-.144-.137.347-.44.048-.132-.034-.341.144l-.448.522c-.013.015-.034.035-.046.051l-.12.268c-.022.107-.015.168-.015.276h-.29c0 .526-.114.585-.223 1.039-.033.14-.043.344-.097.581-.147.64-.261.586.14 1.855l.109.28.023.073c.18.626.199.471.41.949l.413.362c.08.729.485.243.485.97 0 .557-.428.447-.485.97-.477.052-.14-.074-.347.137-.213.216-.084-.144-.138.347-.48.053-.601.432-.924.725-.27.245-.015.128-.337.245v.29c.478.053.14-.072.347.139.213.216.084-.144.138.347.477.052.14-.074.347.137.213.216.084-.143.138.347h.291c.052.478-.073.14.138.348.216.212-.144.084.347.137.052.478-.073.14.138.347.216.213-.144.084.347.138.052.477-.074.14.137.347.216.213-.143.084.348.138v.291c.35-.094.124-.037.341-.24.384-.357-.116-.185.434-.245.052-.477-.073-.14.138-.347.216-.213-.144-.084.347-.138.052-.477-.073-.139.138-.347.216-.213-.144-.084.347-.138.052-.477-.073-.139.138-.347.216-.213-.144-.084.347-.138l.374-.595c.014-.014.033-.036.046-.051l.65-1.289c.171-.388.148-.665.289-1.07.008-.022.022-.045.03-.068.147-.442-.022-.747-.105-1.12l-.27-.99c-.009-.024-.015-.05-.023-.074-.15-.495-.398-.88-.756-1.28l-.301-.378c-.594-.85-.005-.586.066-1.23.477-.052.14.073.347-.137.213-.217.084.143.138-.348.477-.052.139.074.347-.137.213-.216.084.143.137-.347.478-.053.14.073.347-.138.213-.216.085.143.138-.347h.291c.043-.508-.092-.176.194-.291v-.194c-.24-.087-.518-.4-.735-.623l-.237-.247-.05-.047-.73-.725c-.273-.295-.835-.72-.963-1.073h-.194c-.088.237.203.182-.29.194z"
        ></path>
      </g>
    </svg>