 <svg
      xmlns="http://www.w3.org/2000/svg"
      width="24"
      height="24"
      version="1.1"
      viewBox="0 0 62.634 113.446"
    >
      <g fillRule="evenodd" transform="translate(-28.683 -3.277)">
        <path
          fill="#f4c89c"
          d="M41.76 105.12l-.055-.056-1.362-1.375c-.065-.061-.034-.025-.165-.157l-.637-.623c-.708-.654-.117-.84.353-1.32.141-.145.135-.163.303-.33.176-.176.112-.098.278-.254l.678-.706.053-.057c.313-.352.23-.43.596-.434.38-.003.263.03.431.185l1.932 1.987c1.887 1.915 1.847 1.229-.013 3.124-.347.354-.757.891-1.186 1.082zm9.985-8.727c-.377.018-.224.076-.503-.126l-1.917-1.883c-.353-.332-.502-.617-.094-1.014.154-.15.043-.028.176-.144l3.072-3.085c.463-.258.36-.105.616.165l.094.115c.093.102.214.202.32.3l.366.392.048.053.714.67c1.183.941.724.899-.191 1.887l-.994 1.014-.054.05c-.016.015-.04.035-.055.05l-.056.048c-.155.141-.058.04-.22.203l-.353.385-.054.05c-.117.111-.175.151-.28.25zm-10.44-12.647c.105-.099.098-.083.22-.2l.305-.327c.741-.777 1.023-1.22 1.468-.794l.346.401c.015.015.04.035.055.05l.39.353c2.12 2.009 1.65 1.565.827 2.445l-1.431 1.418a6.57 6.57 0 00-.212.224l-1.218 1.204c-.405.18-.505-.002-1.175-.709l-1.788-1.768zm13.402.953c-.202-.056-.124-.038-.239-.109l-2.393-2.365a8.787 8.787 0 00-.167-.163l-.803-.797c-.187-.266-.228-.359.018-.696l.81-.787c.036-.036.143-.15.16-.17l.844-.842.054-.053c.23-.224.323-.37.561-.378.3-.01.347.17.868.691.125.125.09.095.156.166.101.11.173.19.253.269l2.465 2.559c.019.244-.777.929-.958 1.102l-.619.655c-.446.413-.655.746-1.01.918zM44.87 72.962c-.333-.156-.086-.003-.396-.278-.122-.108-.009 0-.158-.156-.13-.136-.075-.085-.149-.166l-.478-.474c-.016-.015-.04-.035-.055-.05l-1.64-1.639c-.634-.629-.864-.703-.797-1.043.048-.243.898-1.007 1.159-1.28l.457-.501.05-.053.275-.245c.578-.518.658-.575 1.043-.252l2.172 2.176c.115.122.2.226.308.333l.392.354c.47.44.566.532.343.898l-.636.632c-.204.202-.02.02-.152.165l-1.317 1.332c-.31.252-.058.136-.421.247zm9.334 43.755c.046-.298.222-.428.554-.798l.047-.054.05-.05.103-.102.053-.051.054-.053.11-.108.054-.058c.088-.092.05-.05.16-.172l6.345-7.603.043-.051c.001-.002.085-.092.114-.127l2.955-5.392c.044-.103.104-.238.132-.3.792-1.754 1.618-3.937 1.875-5.798.043-.307.082-.315.176-.584.513-1.468.455-2.902.604-3.53.347-1.455.102-8.333-.219-9.153-.106-.271-.105-.352-.185-.638-.234-.833-.024-.652-.331-1.698-.047-.157-.046-.21-.083-.356l-.724-2.42c-.417-1.312-.872-2.145-1.168-2.937-.095-.257-.107-.341-.2-.562-.586-1.405-2.125-3.977-2.904-5.13l-.043-.062-.13-.187c-.387-.496-.364-.17-.538-.678l-1.911-2.377c-.138-.153.05.046-.104-.114L47.552 54.489l-.054-.051-.917-.89-.054-.055-1.39-1.35-.057-.05-.058-.052-3.095-2.92c-.07-.07-.15-.148-.226-.217l-.057-.05-.057-.05-.636-.621c-.1-.097-.106-.096-.223-.204-.044-.04-.172-.16-.217-.206l-.054-.053-.053-.053-3.529-3.344c-.382-.362-.217-.043-.31-.422-.283-.076-.369-.244-.545-.412l-6.483-6.203-.054-.048-.424-.352c-.269-.138-.093-.064-.373-.11v52.758c0 4.37.031 8.75-.003 13.118-.004.534.206 1.654.388 2.045.085.181.068.056.12.303l.87 2.62.03.076 1.103 1.965.044.062.382.57c.317.538.208.338.615.76l.256.273.05.056.306.329.153.163 2.927 2.468c1.146.567.996.666 1.703.942l.739.319c.874.46 1.625.46 2.475.803l1.693.317z"
        ></path>
        <path
          fill="#ddad7d"
          d="M84.651 103.496c-.09.396-.514.68-.768.932a4.423 4.423 0 00-.052.054l-.848.851-.052.055c-.732.766-.768 1.049-1.339.524l-.947-.961-.051-.055-.738-.737-.05-.055-1.164-1.168c-.723-.662-.374-.63.499-1.564l.102-.107.055-.048c.515-.425.173.001.502-.447l.179-.244.052-.052c1.023-1.026.626-1.133 3.07 1.391.287.297.519.54.79.794l.28.25.053.049.052.05c.167.168.28.292.375.488zM74.39 91.755l.597-.66.05-.056.735-.74c.275-.29 2.106-2.175 2.312-2.189.285-.018.928.776 1.104.959l1.24 1.19c.65.714.126.724-.76 1.705l-.595.57-.161.169-1.682 1.7c-.197.12-.141.111-.35.048a5.398 5.398 0 01-.196-.118l-.448-.422-.056-.05-1.591-1.57c-.014-.014-.037-.035-.05-.051-.21-.275-.132-.158-.15-.485zm7.713-8.975c-.431-.103-.286-.052-.58-.382l-.1-.113-.05-.058-2.885-2.836c-.162-.18-.196-.082-.189-.434.008-.403.268-.464.548-.71.019-.017.133-.123.17-.16l.567-.581.058-.052c.023-.02.088-.085.111-.107l1.09-.95c.405-.038.28.036.447.185l1.744 1.767c.077.08.068.072.155.164 1.61 1.716 1.908 1.304.838 2.367l-1.262 1.287c-.371.446-.324.458-.662.613zm-3.173-13.702c-.245-.102-.292-.156-.434-.272-.178-.144-.044-.024-.166-.152l-.84-.842c-.143-.137-.02-.023-.152-.167-.094-.104-.14-.161-.258-.272l-.544-.523c-.14-.184-.328-.259-.057-.688.014-.022.035-.045.05-.065l3.032-3.01c.5-.507.067-.301.464-.388.398-.088.412.185.589.39l1.42 1.443c.803.877 1.11.614-.235 1.848l-1.375 1.387-.051.053-.162.15c-.015.015-.04.036-.055.05-.168.155-.039.021-.218.206l-.454.493c-.204.193-.256.261-.554.359zm4.495-24.239c-.085.323-.394.548-.608.768l-5.968 6.297-.052.054-.05.057-1.12 1.13c-.082.352.011.168-.39.538l-.891.91c-.169.171-.236.263-.41.444l-1.5 1.661c-.114.114-.095.084-.22.202l-2.69 2.813-.048.058-.272.267c-.016.015-.04.034-.057.048-.016.014-.042.033-.057.048-.298.271-.235.322-.456.596l-.05.06-.67.694-.053.056-1.937 1.983-.186.22c-.611.808-.581.69-1.267 1.396L61.92 67.8c-.199.402-.17.204-.55.502-.02-.022-.054-.047-.066-.058a17.555 17.555 0 01-.066-.06c-.015-.013-.108-.091-.13-.118.174.508.151.182.537.678l.131.187.043.062c.779 1.153 2.318 3.725 2.905 5.13.092.22.103.305.2.562.295.792.75 1.625 1.167 2.936l.724 2.421c.037.146.036.2.082.356.308 1.046.098.865.332 1.698.08.286.079.367.185.638.32.82.566 7.698.22 9.153-.15.628-.092 2.062-.605 3.53-.095.269-.133.277-.176.584-.257 1.861-1.083 4.044-1.875 5.798a31.75 31.75 0 00-.132.3l-2.955 5.392.153-.131c.142-.118.004-.008.172-.138.28.068 1.232.89 1.493 1.12l.895.81.06.046c.146.112.26.195.414.318.133.105.217.179.344.287l1.837 1.555.056.05.61.451c.063.053.075.07.162.15l1.004.9c.094.068.093.054.196.12l2.633 2.233c.16.131.039.035.189.134l.75.618c.357.31.53.327.609.704l4.391-.012c.323-.047.299-.107.574-.166 1.514-.32.313-.176 1.54-.363.034-.005.06-.007.093-.014l.395-.134.08-.025 1.217-.476.071-.034.15-.062.076-.03.534-.207.072-.033.069-.037.256-.167 1.583-.956c.015-.015.035-.04.05-.054.31-.291.376-.23.7-.464.409-.295.678-.75 1.203-1.125.19-.137.095-.028.245-.178s.041-.055.178-.245c.227-.317.857-.887 1.676-2.026l.355-.492c.158-.219-.065.131.132-.184l1.392-2.945c.29-.798.234-1.194.42-1.59.01-.023.027-.046.037-.068l.35-1.978-.003-16.926V36.777c-.5.106-.172.023-.403.198l-3.597 3.812c-.105.123-.055.064-.147.167l-1.816 1.901c-.207.224-.328.367-.508.544l-1.052 1.172c-.225.235-.055.184-.357.268z"
        ></path>
        <path
          fill="#c79368"
          d="M28.686 36.777c.28.045.104-.029.373.109l.424.352.054.048 6.483 6.203c.176.168.262.336.544.412l-.01-13.137 3.913-.043c0-4.356-.345-5.89.894-9.67l.253-.66c.178-.338.556-1.19 1.225-2.28l.689-1.002c.162-.202.26-.294.435-.501l3.194-2.934c.078-.047.192-.096.282-.145l1.496-.837.072-.037.072-.037.072-.036.53-.224.071-.03.426-.174.077-.03 1.2-.405c.41-.105.65-.02 1.133-.165 2.006-.6 9.665-.556 11.318-.096 1.314.366 2.883 1.212 3.767 2.171a8.528 8.528 0 011.684 2.853l.212.874c.146.572.18.848.193 1.62l4.102.744 4.194 1.923 2.397 2.045 1.722 2.524c.528 1.14 1.078 2.61 1.228 3.792.12.951.067 13.969.02 14.835.301-.084.131-.033.356-.268l1.052-1.172c.18-.177.3-.32.508-.544l1.816-1.9c.092-.104.042-.045.147-.168l3.597-3.812c.23-.175-.097-.092.403-.198 0-1.818.085-4.039-.182-5.766a17.662 17.662 0 01-.114-.837c-.017-.168-.012-.327-.046-.484-.006-.029-.014-.056-.022-.083l-.091-.226c-.125-.381-.072-.954-.209-1.378l-.439-1.783c-.008-.024-.021-.05-.03-.075l-.214-.738c-.021-.07-.035-.087-.056-.156-.059-.188-.05-.223-.104-.425-.007-.028-.013-.056-.022-.084l-.056-.155-.031-.074-.47-1.224c-.01-.032-.045-.122-.058-.153l-.152-.377-.03-.075-1.483-3.172a2.893 2.893 0 00-.04-.066l-.173-.25-.045-.06-.046-.06-2.577-3.875c-.045-.067-.84-.796-1.153-1.28-.089-.138-.08-.15-.21-.318l-.507-.551c-.553-.574-1.136-1.233-1.762-1.729l-.122-.089c-.144-.094-.09-.04-.205-.112l-.473-.48c-.63-.653-1.035-.793-1.98-1.51l-.06-.046-.867-.614-.068-.037-.068-.038-.133-.079L67.6 4.186c-.327-.104.103-.005-.237-.08-.62-.137-.383.001-.808-.144-.025-.009-.049-.024-.074-.032-.364-.118-.886-.034-1.229-.146l-2.127-.412c-.315-.07-.672-.047-1.013-.045-1.244.007-3.987-.125-5.066.012-.36.046-.432.144-.863.195-.38.045-.52.055-.854.098-.527.069-.278.144-.839.219-.323.043-.57-.04-.902.05-.585.16-1.426.256-1.995.543l-1.062.314a4.454 4.454 0 01-.08.025l-.083.023-1.393.51c-.032.012-.132.037-.165.047L45.39 6.917c-.02.012-.048.026-.07.036l-1.497.83c-.022.01-.052.02-.073.032-.022.011-.05.023-.071.035-.018.01-.17.117-.187.13l-1.645 1.106c-.64.496-1.65 1.084-2.136 1.672l-.514.437c-.02.012-.048.026-.067.04l-.781.7c-.146.128-.143.121-.268.26l-.245.283c-.117.125-.17.169-.268.261l-1.857 2.057-.05.056-2.49 3.54c-.01.022-.02.052-.03.075l-.89 1.542c-.045.106-.07.195-.119.305l-.451.818-.108.209a4.27 4.27 0 00-.065.147c-.056.144-.034.112-.077.24l-.233.508c-.057.114-.036.071-.097.22-.013.03-.047.121-.06.152l-1.596 4.75c-.03.185-.007.297-.045.483l-.113.311c-.129.397-.087 1.01-.208 1.378-.082.25-.05.137-.09.44-.12.923-.306 1.816-.304 2.763.003 1.348 0 2.696 0 4.044z"
        ></path>
        <path
          fill="#b9cc2a"
          d="M48.278 30.725l3.9-.001h9.773l.01 5.872c1.426-.073 3.315.207 4.63.843l1.083.406c.026.01.054.02.08.032l1.454.77a2.006 2.006 0 01.126.085l.407.321a11.474 11.474 0 012.712 2.475l.341.416.048.06 1.325 2.148c.428.868.318.81.554 1.369l.26.685c.09.287.1.364.188.786.106.515.132.135.21.76.053.43-.024.371.121.783.225.638.128 3.775.125 4.61l1.121-1.13.05-.057.052-.054 5.968-6.297c.214-.22.523-.445.608-.768.048-.866.102-13.884-.019-14.835-.15-1.182-.7-2.651-1.228-3.792l-1.722-2.524-2.397-2.045-4.194-1.923-4.102-.744c-2.43.16-2.596-.347-5.006.335-.218.061-.496.123-.82.215-1.486.424-2.146.919-3.452 1.748l-.477.263c-.027.015-.1.06-.126.076-.01.006-.128.077-.194.112-1.02.543-3.565 1.159-4.767 1.174-1.806.024-3.05.337-4.42 1.503l-1.712 2.318c-.03.062-.135.29-.135.29-.45 1.055-.379 2.396-.375 3.715z"
        ></path>
        <path
          fill="#f6bb00"
          d="M36.564 43.9c.094.38-.071.06.311.423l3.53 3.343c.014.016.037.038.052.054l.054.053c.045.045.173.166.217.206.117.108.122.107.223.204l.636.62.057.05.057.05c.076.07.157.148.226.219l3.095 2.919.058.052.058.05 1.389 1.35.054.054.917.89c.015.016.038.037.054.052l11.54 11.085c.154.16-.033-.039.105.114l1.91 2.377c.023.027.116.105.13.119l.067.059c.012.01.047.036.066.058.38-.298.351-.1.55-.502l.04-31.203-.009-5.872h-5.855v17.583l-3.918-.01V30.723l-3.9.001.001 9.774-3.914-.044v-9.732l-3.898-.002-3.913.043z"
        ></path>
        <path
          fill="#a2b918"
          d="M40.467 30.721l3.898.002 3.913.002c-.004-1.32-.074-2.66.375-3.714 0 0 .105-.229.135-.291l1.713-2.318c1.37-1.166 2.613-1.48 4.419-1.503 1.202-.015 3.747-.631 4.767-1.174.066-.035.184-.106.194-.112l.126-.076.477-.263c1.306-.83 1.966-1.324 3.452-1.748.324-.092.602-.154.82-.215 2.41-.682 2.576-.174 5.006-.335-.014-.772-.047-1.048-.193-1.62l-.212-.874a8.528 8.528 0 00-1.684-2.853c-.884-.96-2.453-1.805-3.767-2.17-1.653-.46-9.312-.504-11.318.095-.484.144-.724.06-1.134.165l-1.2.406-.076.029-.426.173-.072.031-.529.224c-.023.01-.05.025-.072.036l-.072.037-.072.037-1.496.837c-.09.049-.204.098-.282.145l-3.194 2.934c-.174.207-.273.299-.435.501l-.69 1.003c-.668 1.088-1.046 1.941-1.224 2.28l-.253.658c-1.239 3.781-.894 5.315-.894 9.671z"
        ></path>
        <path
          fill="#cb442e"
          d="M65.102 52.301l.648-.278c.112-.052.209-.094.297-.137l.073-.036.072-.037a8.94 8.94 0 00.07-.037l.966-.495.223-.101c.559-.259 1-.654 1.507-.63.061.35.213.47.386.85l.42.863.038.062.039.062.491 1.005c.205.463.15.344.107.697-.178.04-.11.026-.224.076l-.07.032-2.047 1.019c-.499.226-1.097.621-1.439.632-.06-.111-.12-.27-.179-.39l-.035-.073-.036-.074-1.207-2.393c-.168-.348-.141-.187-.1-.617zm3.778-4.276c-.348-.007-.648-.213-.94-.384l-.27-.149-.073-.034-.297-.134-.075-.035-.074-.037c-2.223-1.088-2.284-.88-1.739-2.003l.071-.146.036-.074 1.14-2.309c.345.01.843.363 1.36.6l2.405 1.154c.084.426.093.354-.233 1zm-6.96 19.774l2.552-2.66c.686-.705.656-.588 1.267-1.395l.186-.22 1.937-1.984.053-.056.67-.695c.015-.018.036-.04.05-.06.221-.273.158-.324.456-.595.015-.015.04-.034.057-.048.016-.014.041-.033.057-.048l.272-.267.048-.058 2.69-2.813c.125-.118.106-.088.22-.202l1.5-1.661c.174-.181.241-.273.41-.443l.891-.91c.401-.371.308-.187.39-.539.002-.835.1-3.972-.126-4.61-.145-.412-.068-.354-.121-.782-.078-.626-.104-.245-.21-.76-.087-.423-.098-.5-.188-.787l-.26-.685c-.236-.56-.126-.501-.554-1.369l-1.325-2.148-.048-.06-.341-.416a11.474 11.474 0 00-2.712-2.475l-.407-.32a2.006 2.006 0 00-.062-.045c-.018-.013-.045-.029-.064-.04l-1.454-.771a2.149 2.149 0 00-.08-.032l-1.083-.406c-1.315-.636-3.204-.916-4.63-.843z"
        ></path>
        <path
          fill="#c79368"
          d="M61.891 107.49c-.03.035-.113.125-.114.127l-.043.05-6.345 7.604c-.11.121-.072.08-.16.172l-.054.057-.11.11-.054.052-.053.051-.104.101c-.013.015-.035.037-.049.051l-.047.054c-.332.37-.508.5-.554.798h19.264c-.078-.377-.252-.394-.61-.704l-.75-.619c-.149-.098-.028-.002-.188-.133l-2.633-2.232c-.103-.067-.102-.054-.196-.12l-1.004-.901c-.086-.08-.098-.097-.161-.15l-.61-.451a3.367 3.367 0 01-.057-.05l-1.837-1.555c-.127-.108-.211-.182-.344-.287-.155-.123-.268-.206-.413-.318l-.06-.046-.896-.81c-.26-.23-1.212-1.053-1.492-1.12-.17.13-.03.02-.173.138z"
        ></path>
        <path fill="#eda600" d="M56.096 30.724h-3.918v17.572l3.918.011z"></path>
        <path
          fill="#eda600"
          d="M48.278 30.725l-3.912-.002v9.732l3.913.044z"
        ></path>
        <path
          fill="#c79368"
          d="M82.102 82.78c.338-.155.291-.167.662-.613l1.262-1.287c1.07-1.063.772-.65-.838-2.367-.088-.092-.079-.084-.155-.165l-1.744-1.766c-.167-.149-.042-.223-.446-.184l-1.09.95c-.024.02-.09.085-.112.106l-.058.052-.567.58a6.536 6.536 0 01-.17.161c-.28.246-.54.307-.548.71-.007.352.027.255.189.434l2.884 2.836.052.058.099.113c.294.33.149.28.58.382z"
        ></path>
        <path
          fill="#c79368"
          d="M78.929 69.078c.298-.098.35-.166.554-.36l.454-.492c.18-.185.05-.052.218-.206.016-.014.04-.035.055-.05l.162-.15.051-.053 1.375-1.387c1.345-1.234 1.038-.97.236-1.848l-1.422-1.442c-.176-.206-.19-.48-.588-.391-.397.087.036-.119-.464.388l-3.031 3.01c-.016.02-.037.043-.05.065-.272.43-.084.504.056.688l.544.523c.118.11.164.168.258.272.131.144.01.03.151.167l.84.842c.123.128-.011.008.167.152.142.116.189.17.434.272z"
        ></path>
        <path
          fill="#ddad7d"
          d="M51.745 96.393l.634-.62c.106-.099.164-.139.281-.25l.054-.05.354-.384c.161-.164.064-.063.219-.204l.056-.049c.015-.014.04-.034.055-.049l.054-.05.994-1.013c.915-.99 1.374-.947.191-1.889l-.714-.669-.048-.053-.367-.393c-.105-.096-.226-.197-.319-.299l-.094-.115c-.256-.27-.153-.423-.616-.165l-3.072 3.085c-.133.116-.022-.005-.175.144-.41.397-.26.682.093 1.014l1.917 1.884c.279.2.126.143.503.125z"
        ></path>
        <path
          fill="#c79368"
          d="M84.275 103.008a3.52 3.52 0 00-.051-.05l-.054-.05-.279-.25c-.271-.253-.503-.496-.79-.793-2.444-2.524-2.047-2.417-3.07-1.391-.015.015-.038.036-.052.052l-.179.244c-.329.448.012.022-.502.448l-.055.047-.102.107c-.873.934-1.222.902-.499 1.564l1.164 1.168c.014.016.035.04.05.055l.737.737.052.055.947.96c.571.526.607.243 1.338-.523l.053-.055.847-.851.053-.054c.254-.252.678-.536.768-.932-.095-.195-.208-.32-.376-.488z"
        ></path>
        <path
          fill="#c79368"
          d="M74.389 91.755c.017.327-.06.21.15.485.012.016.035.037.049.052l1.591 1.57.056.049.448.422c.015.012.192.116.197.118.208.063.152.071.35-.049l1.68-1.7c.012-.011.152-.158.162-.169l.595-.569c.886-.98 1.41-.99.76-1.705l-1.24-1.19c-.176-.183-.819-.978-1.104-.959-.206.014-2.037 1.899-2.312 2.189l-.734.74-.051.056z"
        ></path>
        <path
          fill="#ddad7d"
          d="M42.966 106.186c.43-.19.839-.728 1.186-1.082 1.86-1.895 1.9-1.209.012-3.124l-1.93-1.987c-.169-.155-.052-.188-.432-.185-.365.003-.283.082-.596.434l-.053.057-.678.706c-.166.156-.102.078-.278.254-.168.167-.162.185-.303.33-.47.48-1.06.666-.353 1.32l.637.623c.13.132.1.096.165.157l1.362 1.375.055.056z"
        ></path>
        <path
          fill="#ddad7d"
          d="M39.093 86.043l1.787 1.768c.67.707.77.89 1.175.709l1.218-1.204a6.57 6.57 0 01.212-.223l1.431-1.42c.822-.879 1.294-.435-.827-2.444l-.39-.353c-.016-.015-.04-.035-.055-.05l-.346-.4c-.445-.427-.727.016-1.468.793l-.305.326c-.122.118-.115.102-.22.201z"
        ></path>
        <path
          fill="#ddad7d"
          d="M44.87 72.962c.363-.11.111.005.422-.247l1.316-1.332c.132-.145-.052.037.152-.165l.636-.632c.223-.366.127-.457-.343-.898l-.392-.354c-.108-.107-.193-.211-.308-.333l-2.172-2.176c-.385-.323-.465-.266-1.043.252l-.275.245-.05.053-.457.5c-.261.274-1.111 1.038-1.159 1.281-.067.34.163.414.797 1.043l1.64 1.639c.016.015.04.035.055.05l.478.474c.074.08.018.03.149.166.15.157.035.048.158.156.31.275.063.122.396.278z"
        ></path>
        <path
          fill="#ddad7d"
          d="M54.707 84.698c.355-.17.565-.504 1.01-.917l.62-.655c.18-.173.976-.858.957-1.102l-2.465-2.56c-.08-.078-.151-.159-.253-.268-.066-.07-.031-.04-.156-.166-.521-.52-.568-.701-.868-.691-.238.008-.332.154-.561.377l-.054.053-.844.844a6.069 6.069 0 01-.16.169l-.81.787c-.246.337-.205.43-.018.696l.803.796c.043.04.157.152.167.164l2.393 2.365c.115.071.037.053.239.108z"
        ></path>
        <path
          fill="#b82f1a"
          d="M70.191 45.474c.326-.646.317-.574.233-1L68.02 43.32c-.517-.238-1.015-.59-1.36-.6l-1.14 2.308-.036.074-.07.146c-.546 1.122-.485.915 1.738 2.003l.074.037c.024.01.05.023.075.035l.297.134.073.034.27.149c.292.17.592.377.94.384z"
        ></path>
        <path
          fill="#b82f1a"
          d="M65.202 52.919l1.207 2.393.036.074.035.072c.058.12.118.279.179.39.342-.01.94-.406 1.44-.632l2.046-1.02.07-.031c.114-.05.046-.036.224-.076.043-.353.098-.234-.107-.697l-.491-1.005c-.01-.018-.028-.044-.039-.062-.01-.018-.028-.044-.039-.062l-.42-.863c-.172-.38-.324-.5-.385-.85-.506-.024-.948.372-1.507.63-.078.036-.144.064-.223.101l-.966.495a8.94 8.94 0 01-.07.037l-.072.037-.073.036c-.088.043-.185.085-.297.137l-.648.278c-.041.43-.068.269.1.618z"
        ></path>
      </g>
    </svg>