  <svg
      xmlns="http://www.w3.org/2000/svg"
      width="24"
      height="24"
      version="1.1"
      viewBox="0 0 110.4 110.386"
    >
      <g fillRule="evenodd" transform="translate(-4.8 -4.807)">
        <path
          fill="#f9c623"
          d="M29.518 61.91c5.033-.11 10.19-.005 15.237-.005h7.585c2.551 0 5.134-.048 7.666.06 2.348-.182 5.151-.06 7.57-.06h15.238c2.53 0 5.13-.058 7.652.006.193-.038.078-.026.145-.07l.042-.027.343-.335c.01-.01.022-.026.03-.037l.2-.274c.01-.011.02-.027.03-.038.123-.141.074-.174.361-.18v-.475c.348-.008.233-.054.367-.175l1.23-1.276c.01-.009.028-.02.039-.028l.944-.953c.09-.09.033-.044.12-.15l.093-.11.034-.034.382-.567c.014-.013.063-.044.078-.056l.69-.665c.01-.01.02-.027.03-.038.048-.06.048-.073.087-.116l.392-.421.034-.034.034-.033.7-.722c.111-.118.028-.031.14-.13l.95-1.15.035-.034.287-.254c.316-.33-.24.283.063-.072l.624-.663c.102-.13.053-.084.164-.175l2.06-2.274c.01-.01.02-.028.029-.039l.446-.434c.009-.011.02-.028.028-.04l1.258-1.247.035-.033.033-.034.494-.522c.011-.009.027-.02.038-.03l.651-.839a2.7 2.7 0 00.034-.033l.632-.655.033-.035.035-.033.036-.032c.01-.01.026-.022.036-.031l.475-.54.03-.039.834-.791c.013-.015.046-.061.059-.077.009-.011.02-.028.028-.04l.31-.3.034-.032.034-.034.335-.478.027-.04.39-.423c.045-.048.019-.024.06-.076.009-.01.02-.028.028-.039.01-.01.02-.028.03-.039l.505-.51a.984.984 0 01.032-.035l.51-.507.035-.032.37-.375.033-.034.107-.096.074-.062c.01-.01.026-.022.036-.031l.194-.214.03-.037.057-.078.028-.04c.14-.19.212-.315.476-.337v-.474c.306-.007.245-.037.389-.22l1.57-1.613.036-.032c.017-.017.055-.046.073-.063l.691-.73c.33-.346.134-.016.342-.47.077-.168.021-.082.107-.165l.325-.284c.01-.011.02-.028.028-.04l.367-.378c.01-.01.027-.02.038-.03l.716-.774c.003-.004.082-.104.091-.112.142-.12-.073-.075.238-.1v-.204c-.302-.006-.476-.07-.88-.068-8.803.05-17.608 0-26.411 0-.309 0-.646-.013-.95-.001-.293.01-.441.075-.64.24l-.432.45c-.01.008-.028.019-.04.027l-1.06 1.04c-.086.086-.005.004-.09.112L82 39.753c-.012.008-.028.02-.038.029l-.32.359c-.01.009-.027.02-.038.029l-.15.12-.032.036-.095.108-.035.033-.616.603c-.01.01-.021.027-.03.037l-.222.252c-.011.01-.028.02-.039.03l-.658.628-.059.077-3.227 3.206c-.087.087-.006.005-.09.112l-1.006 1.026c-.01.011-.021.027-.03.038l-.415.398c-.01.01-.02.028-.03.039l-2.583 2.562c-.107.085-.025.004-.112.091l-.507.51-.058.077c-.01.01-.02.028-.029.039l-.804.753c-.01.01-.02.028-.03.039l-.056.078-.648.639c-.01.01-.026.022-.035.032l-.146.192c-.145.181-.062.194-.347.22-.013.285-.03.318-.172.481l-.033.036-.124.142-.136.126c-.189.163-.208.17-.477.213-.045.347-.07.304-.214.47l-1.289 1.273c-.01.01-.026.023-.036.034l-.574.586c-.01.01-.021.027-.03.037-.195.227.023-.016-.06.072l-.506.51-.033.03-.256.226-.033.037-1.282 1.28c-.262.229-.175.103-.274.365l-.229.023v.193l-.399.078-.148.402-2.203 2.188-.035.035-.302.303c-.195.199-.1.07-.297.178-.518.283.325-.035-.268.223-.265.115-.36-.075-.361-.076-.21-.173.175-.099-.228-.164l-.237-.051v-.208h-.205l-.031-.102v-.135h-.136l-.102-.034v-.203l-.215.001-.044-.238c-.066-.407.07-.004-.221-.296l-.033-.035-.166-.178-.07-.067-.404-.407-.035-.034-.036-.033-.545-.538c-.08-.076-.035-.03-.1-.098-.354-.37-.474-.123-.729-.694l-.149-.244c-.089-.114-.077.21-.115-.221h-.218v-.271h-.271c-.019-.171-.057-.163-.17-.304l-1.929-1.931c-.009-.011-.02-.028-.03-.038l-.861-.832c-.013-.015-.045-.063-.057-.079-.009-.01-.02-.027-.03-.037l-.388-.358c-.012-.015-.044-.063-.057-.078l-.03-.037-1.054-1.046c-.01-.009-.027-.02-.038-.03l-.831-.861c-.011-.009-.029-.02-.04-.028l-.077-.059-.318-.358c-.011-.01-.028-.02-.04-.03-.06-.047-.076-.05-.116-.086l-2.998-3.028c-.042-.052-.045-.064-.093-.111l-2.163-2.103c-.012-.016-.044-.064-.057-.08l-.417-.394c-.012-.016-.044-.064-.057-.08l-.388-.356c-.01-.01-.02-.027-.029-.038-.012-.016-.044-.064-.057-.08l-.388-.356c-.01-.01-.02-.027-.03-.038-.011-.016-.043-.064-.056-.08l-.571-.579-.078-.058c-.01-.009-.028-.02-.039-.028l-.5-.516c-.01-.01-.022-.026-.031-.037l-.445-.435c-.01-.01-.021-.027-.03-.038l-2.308-2.297c-.087-.087-.006-.005-.09-.112l-2.602-2.613c-.016-.013-.063-.045-.078-.058-.011-.009-.027-.02-.037-.03a1.206 1.206 0 01-.035-.033l-.095-.109c-.01-.01-.022-.025-.033-.035a1.209 1.209 0 00-.034-.033l-.793-.765c-.012-.015-.044-.064-.056-.079l-.978-.986c-.567-.64-1.294-.367-2.544-.367-.296 0-5.15.089-5.44-.046l-1.282-1.224c-.01-.01-.026-.022-.036-.031l-.178-.161-.032-.036-1.104-1.131-.03-.037-.168-.17c-.01-.01-.026-.023-.037-.032l-.037-.03-.803-.823-.035-.033-.562-.521c-.164-.164-.354-.187-.53-.351l-.134-.137c-.057-.076-.068.011-.089-.181h-.474c-.031-.376.04-.17-.213-.261-.307-.111-.215.207-.261-.213h-.745c-.045-.416-.658-.272-1.016-.271H16.72v.27h-.542c-.055.506.089-.108-.506.443l-.29.252c-.009.01-.02.027-.03.038l-.414.669c-.008.012-.022.025-.03.038l-.028.04c-.071.135-.06.321-.266.817-.238.57.122.964.196 1.442.073.465.114.313.337.611l.352.529c.176.208.27.314.476.336v.203l-10.5-.002c-.352.004-.382.064-.674.07v.203c.227.02.162.027.27.138l.384.427c.011.01.027.021.038.03l.036.032.51.506.035.032.177.23.028.04.246.227c.176.138.123.14.254.356l.027.04.31.368.03.037.032.036 2.217 2.253c.009.011.02.028.028.04.139.177.057.212.39.22v.474c.204.004.091-.017.218.052.222.12-.096-.09.078.058l.34.405.034.033.16.179.032.035.034.034.2.206c.01.01.022.026.031.037l.505.51c.01.01.022.026.032.037l.434.446c.009.01.02.027.03.038l1.877 2.05c.011.01.028.02.039.03l3.548 3.833c.01.01.022.026.031.036l1.123 1.113.038.028.493.591c.007.015.01.036.017.05l.876.954.028.04.249.292c.01.01.027.02.038.03l.152.118.033.036.764.793c.01.01.028.02.04.028l.232.241c.01.011.02.028.03.04l1.121 1.315c.014.014.05.058.063.073l1.115 1.12c.418.378.051.027.541.61l.447.433.029.04.356.32c.033.045.054.128.113.225l.027.041.753.805.029.039c.009.01.02.028.029.039l.449.498.035.033 1.238 1.2c.187.23.094.33.474.34v.473c.35.008.164-.025.33.144l.406.474.03.037c.172.197.13.258.385.305z"
        ></path>
        <path
          fill="#f7bb00"
          d="M59.992 115.193l.014-53.228c-2.532-.108-5.115-.06-7.666-.06h-7.585c-5.047 0-10.204-.104-15.237.004 0 .383-.02.765.054 1.153.068.359-.119.22.217.257v1.626h.203c0 .432-.03.981.039 1.383.07.399-.075.276.232.31v1.693h.203c0 .378-.033 1.02.048 1.374.08.354-.11.214.223.25v1.694h.203c0 .637.068 1.05.068 1.625h.203c0 2.148.05 1.182.192 1.84l.015.662c.024.304.064.48.064.884h.203c0 .294 0 .588-.002.882l.209 1.552c.024.305.064.481.064.885h.203c0 .294 0 .587-.002.881l.209 1.553c.024.304.064.48.064.884h.203c0 .294.002.588-.001.881-.005.558-.042.407.133.748.139.27.049.47.075.805.024.304.064.48.064.884h.203c0 .54-.08 1.256.111 1.65.079.162.057-.066.093.313l.067 1.355h.203c0 2.232.14 1.289.204 1.963.017.18.014.262.039.436.043.3.028.605.028.92h.203c0 2.232.14 1.288.204 1.963l.067 1.355h.203v.881c-.003.228-.025.44.042.634l.149.326c.016.08.01.11.016.187.015.229.027.286.046.428.04.302.018.623.018.93h.203c0 .47-.096 1.156.111 1.582l.16 1.736h.203l.005 1.282c.03.224.058.183.13.343.11.24.057.429.108.774.043.3.028.606.028.92h.203l.019 1.403c.069.366-.006.261.252.29v1.625h.203l.019 1.403c.069.367-.006.261.252.29v1.625h.203c0 2.625.208 1.201.271 1.964z"
        ></path>
        <path
          fill="#eca600"
          d="M59.992 115.193h22.822c.02-.239.033-.119.152-.321.198-.336.118-1.178.118-1.643h.204v-1.625c.16-.018.27.188.274-.674.001-.34-.003-.68-.003-1.02h.203v-1.624c.16-.018.27.188.274-.675.001-.338-.003-.68-.003-1.018h.203c0-.475 0-1.411.16-1.737.006-.014.018-.029.024-.043l.06-.143.027-1.396h.203c0-.475 0-1.41.16-1.736.006-.014.018-.03.024-.043l.06-.143.027-1.396h.203l.16-1.736c.006-.014.018-.03.024-.043.157-.33.087-1.23.087-1.607h.203c0-.285-.019-.582.018-.862.12-.906-.042-.408.167-.85.156-.33.086-1.228.086-1.606h.203c0-.286-.019-.583.018-.862.12-.906-.042-.409.167-.85.006-.014.017-.03.023-.044.113-.268.063-1.249.063-1.563h.203c0-.374.028-.548.058-.822l.012-.598c.04-.303.131-.199.187-.49.028-.143.017-.31.016-.458-.003-.317-.002-.633-.002-.95h.203c0-.225.067-1.536.115-1.646.031-.073.092-.073.14-.266l.016-1.406h.203c0-.28.054-1.516.135-1.694l.025-.043c.133-.273.115-.287.114-.63l-.003-.951h.203c0-.28.054-1.517.135-1.694l.025-.043c.133-.273.115-.287.114-.631l-.003-.95h.203c0-.49.054-1.516.135-1.694l.025-.043.048-.087c.114-.267.063-1.25.063-1.563h.203c0-.575.068-.987.068-1.625h.203v-1.693c.186-.02.232.203.272-.677.013-.301-.001-.642-.001-.948h.203v-1.693c.334-.037.143.103.223-.251.082-.362.048-1.054.048-1.442h.203v-1.626c.263-.028.169.198.254-.558.032-.278.017-.568.017-.85-2.522-.064-5.122-.005-7.652-.005H67.577c-2.42 0-5.222-.123-7.571.059z"
        ></path>
        <path
          fill="#b0702b"
          d="M44.755 12.436c.435.006 2.79-.044 3.101.11.012.005.026.018.037.023.011.006.027.018.038.023.233.1 2.48.066 2.783.07l1.546.027c.46.128-.162.124.365.177.038-.328-.05-.123.12-.202 1.288.004 2.575.018 3.862.025l1.34.054c.386.08-.099.048.356.11.385.054 1.404.031 1.825.022l7.652.053.525.515c-.05-.085-.115-.068-.12-.278l5.96.012c.275.074-.002-.056.204.188 2.448.018 6.032-.04 8.404.057.799.033-.441.152 1.821.18 1.738.02 3.478.013 5.215.037l1.83.035c.523.046.04.066.505.154.497.095 8.088.008 8.421.086.282.066.087.137.478.153 1.927.08 8.503-.076 9.315.134.262.068-.117.013.249.082l4.597.057V4.81l-5.962-.003c-1.148.001-.404.208-1.826.205-.655 0-1.31.003-1.964 0-.686-.002-1.218.068-1.964.068h-3.995v.203c-.757 0-7.806-.074-8.54.062-.452.084-.104.144-.736.143-.24 0-.294.006-.504.037-.46.07-7.2.03-7.827.03v.202h-6.637c-1.16 0-1.46.008-2.316.19l-.77.042c-.56.084-7.096.04-7.817.04v.202c-.865 0-7.032-.047-7.739.05-.527.072-.632-.069-1.065.086-.684.244-8.107.135-8.803.135v.203h-1.964z"
        ></path>
        <path
          fill="#91591b"
          d="M68.305 13.443c.015.68.24.305.449.81.243.588.092.141.248.428.036.066.042.151.089.247l.524.835c.008.012.023.026.03.038l.263.507c.061.11.015.018.065.15.007.02.02.084.028.103.005.012.011.031.017.043l.21.242c.36.441-.005.16.514.782l.349.59.024.044c.075.16.007.157.145.347l.17.346c.102.276.157.143.196.475.02.18.01.527.042.68.1.48.178-.149.224.41h2.863c.023.214-.156.186.49.256l2.354.015v.203c.919 0 2.426-.128 3.093.158l2.867.113v.203c.485 0 2.319-.087 2.752.092.014.006.03.016.045.022.601.255 2.231.157 3.094.157v.203c.82 0 2.243-.152 2.866.114l2.89.157v.203c.713 0 2.452-.072 2.952.096.728.245.204.176 1.383.175h1.557v.203c.568 0 2.35-.106 2.866.114.052.022.04.022.093.042.577.22 2.202.115 3 .115v.203c.456 0 1.048-.032 1.487.004.266.022.329.068.679.066.106 0 .243-.01.345-.007l.426.116c.425.18 2.345.092 2.82.092v.203c.435 0 1.068-.036 1.48.01.136.016.478.105.686.06.284-.06.214-.18.208-.54l-.004-9.028-4.597-.057c-.365-.069.013-.014-.249-.082-.812-.21-7.388-.054-9.315-.134-.391-.016-.196-.087-.478-.153-.333-.078-7.924.009-8.42-.086-.465-.088.017-.108-.506-.154l-1.83-.035c-1.737-.024-3.477-.017-5.215-.038-2.262-.027-1.022-.146-1.82-.179-2.373-.097-5.957-.039-8.405-.057-.206-.244.07-.114-.204-.188l-5.96-.012c.005.21.07.193.12.278z"
        ></path>
        <path
          fill="#f4c99c"
          d="M52.625 12.866c.01.011.032.01.036.03l.359.574c.066.116.014.024.063.147.062.157 0 .065.079.196l.145.196c.156.291-.027.121.207.388.4.455.079-.017.35.53l.34.605c.333.382.195.24.338.562l.19.263c.094.173-.08-.196.04.101.008.02.025.086.033.105.168.393.207.081.457.688l.132.22c.343.455.12.006.334.528l.133.221.024.044.037.101c.197.514.16.152.242.413.025.082.02.233.023.32l.015.474h.2c0 1.449.265 1.14.265 1.896 0 .757-.264.448-.264 1.896H56.2c0 .465.135.712-.271.745v.474c-.422.047-.066.006-.253.357-.124.233-.088.052-.184.222-.058.102-.016.055-.056.148-.143.333-.339.389-.473.745l-.343.47a.896.896 0 00-.026.042c-.044.083-.068.185-.096.242a1.163 1.163 0 01-.024.045c-.007.013-.019.028-.026.04l-.087.117c-.007.013-.018.03-.024.044-.134.303.049.537-.304.576v.745h-.204c0 .617-.07.998-.068 1.557.002.615.068.955.068 1.558h.204c0 .338-.047.705.123.96l.37.782c.054.152.018.057.067.136l.09.112c.015.024.052.108.066.138.038.082.018.065.061.142l.027.04.124.215c.029.083.01.084.039.165l.128.21c.008.012.022.026.03.038l.483 1.142c.232.491-.165.543.288.593 0 .19-.013.427-.002.611.022.368.014.376.273.404v3.793c-.417.045-.271.657-.271 1.015-.412.045-.074.13-.365.719-.156.314-.06.349-.28.737l-.156.317c-.011.017-.05.057-.061.075-.177.281-.047.362-.682 1.214l-.267.478c-.007.013-.02.028-.026.041l-.65 1.382c-.17.289-.154.732-.154 1.132h-.203v2.37h.203c0 .245-.047.558.04.773.15.371.058.02.173.233.08.15.036.263.117.425l.056.08c.007.012.021.026.028.04.085.156.034.043.079.259.014.067.016.134.053.217l.295.654c.118.217.12.47.262.686l.474 1.15c.08.123.044-.001.097.175l.162.447c.12.221.105.43.214.598.074.113.056.057.11.229l.278.942h.203l.015.27c.038.432.026.108.115.222l.15.245c.254.57.374.322.727.693.066.068.02.022.101.098l.545.538.036.033.035.034.403.407.071.067.166.178.033.035c.29.292.155-.11.221.296l.226.011c.135.346-.087.124.253.259l.017.204.204.012c.135.345-.087.123.253.258l.017.226c.403.065.019-.009.228.164 0 0 .096.191.36.076.594-.258-.249.06.269-.223.198-.108.102.02.297-.178l.302-.303.035-.035 2.203-2.188.148-.402.398-.078.001-.193c.003-.173-.03-.148-.096-.264-.007-.012-.02-.026-.028-.04-.09-.17-.085-.364-.097-.557-.238-.143-.164-.253-.287-.486-.136-.259-.036.173-.149-.262-.022-.085-.029-.304-.038-.404-.09-.276-.035.044-.158-.179l-.316-1.04c-.236-.15-.161-.248-.286-.487-.136-.26-.037.168-.15-.261-.022-.086-.028-.301-.038-.403-.086-.283-.04.034-.157-.181-.086-.156-.035-.162-.108-.321l-.024-.045-.185-.672c-.355-.236-.096-.151-.315-.53-.08-.138-.065.102-.138-.338-.032-.195.002-.194-.098-.358-.147-.244-.056.187-.135-.263-.025-.137.001-.336-.016-.48-.071-.614-.209.09-.205-1.623 0-.192-.001-.355.088-.518.154-.282.06-.78.153-1.085.103-.334.198-.143.222-.764.167-.097.082.019.165-.11l.22-.462c.067-.095.002.037.074-.126.017-.039.027-.104.049-.158l.98-1.732c.006-.012.017-.028.024-.04l.106-.17c.043-.096.026-.093.052-.166l.226-.537c.06-.157-.117-.115.209-.148.004-.117.006-.308.022-.42.065-.45.172-.169.23-.555.02-.122.008-.27.026-.389.088-.557.206.234.239-1.42.008-.43.119-2.765-.117-3.17-.077-.133-.052.156-.12-.283-.019-.117-.01-.271-.027-.389-.096-.64-.13.056-.224-.562-.083-.541-.334-.733-.48-1.153l-.542-1.1c-.09-.167-.005.016-.087-.121-.042-.07-.013-.007-.064-.13l-.074-.194c-.162-.287-.165.072-.218-.808-.394-.057-.078-.28-.314-.69-.074-.128-.082.104-.112-.333-.03-.443-.104-1.876.042-2.24l.07-.126c.118-.236.108-.908.205-1.085l.587-1.18c.007-.016.011-.035.018-.052.066-.168-.009-.05.079-.194l.06-.075.032-.038.197-.339.028-.038.306-.366c.158-.185.203-.41.348-.608l.196-.404c.007-.016.017-.032.025-.046l.087-.12c.115-.206.046-.235.11-.438.069-.22.133-.134.19-.327.03-.103.029-.404.034-.527l.15-.588c.185-.395.096-1.589-.056-1.871l-.107-.717c-.043-.205-.13-.162-.253-.275l-.019-.597c-.352-.046-.191-.263-.327-.477l-.253-.506c-.007-.01-.022-.023-.03-.033-.012-.015-.049-.053-.062-.067l-.03-.037-.031-.037-.032-.036c-.182-.225-.313-.555-.436-.823l-.393-.58c-.216-.45-.168-.222-.313-.59l-1.001-1.581c-.263-.335-.019-.094-.245-.452l-.488-.814c-.42.01-1.44.032-1.825-.021-.455-.063.03-.03-.355-.111l-1.34-.054c-1.288-.007-2.575-.02-3.862-.025-.17.08-.083-.125-.121.202z"
        ></path>
        <path
          fill="#ddad7c"
          d="M63.758 58.086l.23-.023c.098-.262.01-.136.274-.365l1.281-1.28.033-.037.256-.226.033-.03.506-.51c.083-.088-.135.155.06-.072.009-.01.02-.027.03-.037l.574-.586.036-.035 1.29-1.273c.143-.166.168-.122.213-.469.269-.044.288-.05.477-.213l.136-.126.124-.142.034-.036c.14-.163.158-.196.17-.48-.125-.277-.034.12-.266-.522-.052-.144-.04-.074-.097-.174-.142-.252-.057-.185-.099-.443-.05-.316-.011-.257-.257-.284 0-.339-.002-.677 0-1.016.002-.172.012-.362-.011-.53a1.086 1.086 0 00-.058-.214c-.086-.16.046-.063-.135-.136v-.203c.345-.092.204-.62.204-1.49.256-.028.2.034.254-.287.068-.41-.125-.352.22-.39v-.677c.369-.03.174-.046.307-.37a.728.728 0 01.022-.046l.143-.195c.592-.739-.018-.554.476-.608v-.474h.27v-.474h.204v-.474c.21-.018.128 0 .27-.068 0-.794-.062-.58.204-.61v-.744c.408-.034.27-.153.27-1.22h.204v-2.844h-.203c0-.25.003-.5.006-.75.004-.394.065-.44-.277-.468v-.745c-.326-.036-.15.097-.209-.198-.004-.023.006-.357.006-.412-.124-.061-.085-.052-.271-.068v-.474h-.203v-.474h-.271v-.474c-.416-.045-.03.034-.327-.418-.301-.46.008-.065-.264-.548l-.09-.25c-.058-.332.034-.376-.267-.41v-1.218h-.204v-1.422h.204v-1.22c.274-.03.21-.02.262-.347l.123-.35c.008-.013.02-.027.027-.04l.238-.508c.22-.374-.082-.338.298-.38v-.473c.47-.01.173-.011.28-.127.149-.16.186-.367.23-.447l.089-.114c.155-.182.263-.279.342-.538.075-.244.043-.155.163-.311.318-.413-.144-.58.318-.63 0-1.449.283-.155.272-1.489-.004-.57.038-1.28-.02-1.83-.046-.559-.123.07-.224-.41-.032-.153-.022-.5-.042-.68-.039-.332-.094-.2-.196-.475l-.17-.346c-.138-.19-.07-.187-.145-.347l-.024-.045-.35-.589c-.518-.622-.153-.341-.513-.782l-.21-.242c-.006-.012-.012-.03-.017-.043-.008-.019-.02-.082-.028-.102-.05-.133-.004-.041-.066-.151l-.261-.507c-.008-.012-.023-.026-.031-.038l-.524-.835c-.047-.096-.053-.18-.089-.247-.156-.287-.005.16-.248-.428-.21-.505-.434-.13-.45-.81l-.524-.515-7.652-.053.488.814c.226.358-.018.117.245.452l1.001 1.581c.145.369.097.14.313.59l.393.58c.123.268.254.598.436.823.01.01.023.026.032.037l.031.036.03.037c.013.014.05.052.062.067.008.01.023.023.03.033l.253.506c.136.214-.025.43.327.477l.019.597c.124.113.21.07.253.275l.107.717c.152.282.24 1.476.055 1.87l-.15.589c-.004.123-.003.424-.033.527-.057.193-.121.107-.19.327-.064.203.005.232-.11.437l-.087.12-.025.047-.196.404c-.145.198-.19.423-.348.608l-.306.366-.028.038-.197.34c-.009.011-.023.025-.032.037l-.06.075c-.088.143-.013.026-.08.194-.006.017-.01.036-.017.053l-.587 1.18c-.097.176-.087.848-.205 1.084l-.07.127c-.146.363-.073 1.796-.042 2.239.03.437.038.205.112.333.236.41-.08.634.314.69.053.88.056.521.218.809l.074.193c.051.123.023.06.064.13.082.137-.003-.046.087.12l.543 1.101c.145.42.396.612.479 1.153.094.618.128-.078.224.562.018.118.008.272.027.39.068.438.043.15.12.281.236.406.125 2.74.117 3.17-.033 1.655-.151.864-.238 1.421-.02.119-.008.267-.026.389-.059.387-.166.106-.23.555-.016.112-.02.303-.023.42-.325.033-.148-.01-.209.148l-.226.537c-.026.073-.01.07-.052.167l-.106.17c-.007.011-.018.027-.024.039l-.98 1.732c-.022.054-.032.119-.05.159-.07.162-.006.03-.073.125l-.22.462c-.083.129.002.013-.165.11-.024.621-.119.43-.222.764-.094.305.001.803-.153 1.085-.09.163-.088.326-.088.518-.004 1.713.134 1.009.205 1.622.017.145-.009.344.016.48.08.45-.012.02.135.264.1.164.066.163.098.358.073.44.059.2.138.337.22.38-.04.296.315.531l.185.672.024.045c.073.159.022.165.108.32.118.216.07-.101.157.182.01.102.016.317.039.403.112.429.013.002.149.261.125.239.05.338.286.487l.316 1.04c.123.223.068-.097.158.18.01.099.016.318.038.403.113.435.013.003.15.262.122.233.048.343.286.486.012.193.007.386.097.558.007.013.02.027.028.04.066.115.1.09.096.263z"
        ></path>
        <path
          fill="#91591b"
          d="M56.187 19.098c-.003-.087.002-.238-.023-.32-.083-.261-.044.102-.242-.413l-.037-.101-.024-.044-.133-.22c-.213-.523.01-.074-.333-.53l-.133-.219c-.25-.607-.289-.295-.457-.688-.008-.02-.025-.085-.033-.105-.12-.297.054.072-.04-.1l-.19-.264c-.143-.321-.005-.18-.338-.562l-.34-.605c-.271-.547.05-.075-.35-.53-.234-.267-.05-.097-.207-.388l-.145-.196c-.08-.131-.017-.039-.079-.196-.049-.123.003-.03-.063-.147l-.359-.574c-.004-.02-.025-.019-.036-.03-.527-.053.095-.049-.365-.176l-1.546-.028c-.303-.004-2.55.03-2.783-.07-.011-.005-.026-.017-.038-.023-.01-.005-.025-.018-.037-.024-.31-.153-2.666-.103-3.101-.109v5.714h.745c.027.251-.173.163.5.246l2.344.025v.203h2.912v.203c.552 0 .89.069 1.49.068h1.558v.203z"
        ></path>
        <path
          fill="#f7c85c"
          d="M59.043 60.95l-.017-.204c-.34-.135-.118.087-.253-.259l-.226-.01.044.237.215-.001v.203l.102.034z"
        ></path>
        <path
          fill="#f7c85c"
          d="M59.517 61.446l-.017-.226c-.34-.135-.118.087-.253-.258l-.204-.012.001.135.031.103.205-.001v.208z"
        ></path>
      </g>
    </svg>